<svg width="308" height="48" viewBox="0 0 308 48" fill="none" xmlns="http://www.w3.org/2000/svg">
<path d="M46.1051 11.02C44.5541 11.707 42.8861 12.165 41.1261 12.382C42.9151 11.32 44.2921 9.626 44.9381 7.624C43.2641 8.605 41.4091 9.326 39.4361 9.706C37.8601 8.036 35.6121 7 33.1221 7C28.3391 7 24.4611 10.843 24.4611 15.582C24.4611 16.253 24.5401 16.906 24.6871 17.54C17.4911 17.179 11.1081 13.758 6.83807 8.566C6.08807 9.835 5.66607 11.32 5.66607 12.888C5.66607 15.867 7.19107 18.49 9.51707 20.035C8.09707 19.992 6.76107 19.597 5.59107 18.963C5.59107 18.989 5.59107 19.027 5.59107 19.064C5.59107 23.227 8.57707 26.694 12.5351 27.483C11.8121 27.681 11.0471 27.791 10.2591 27.791C9.70007 27.791 9.15507 27.728 8.62707 27.633C9.72907 31.035 12.9261 33.522 16.7141 33.596C13.7501 35.894 10.0171 37.27 5.95807 37.27C5.25707 37.27 4.57107 37.23 3.89307 37.148C7.73007 39.577 12.2831 41 17.1711 41C33.0981 41 41.8121 27.921 41.8121 16.574C41.8121 16.202 41.8001 15.832 41.7831 15.466C43.4831 14.265 44.9481 12.751 46.1051 11.02Z" fill="url(#paint0_linear_1149_1758)"/>
<path d="M68.5028 9.90909H72.8778V30.5341C72.8778 32.3996 72.5085 33.9953 71.7699 35.321C71.0407 36.6468 70.0133 37.66 68.6875 38.3608C67.3617 39.0521 65.8087 39.3977 64.0284 39.3977C62.3902 39.3977 60.9176 39.0994 59.6108 38.5028C58.3134 37.9062 57.286 37.0398 56.5284 35.9034C55.7803 34.7576 55.4062 33.3655 55.4062 31.7273H59.767C59.767 32.5322 59.9517 33.2282 60.321 33.8153C60.6998 34.4025 61.2159 34.8617 61.8693 35.1932C62.5322 35.5152 63.2898 35.6761 64.142 35.6761C65.0701 35.6761 65.8561 35.482 66.5 35.0938C67.1534 34.696 67.6506 34.1136 67.9915 33.3466C68.3324 32.5795 68.5028 31.642 68.5028 30.5341V9.90909ZM88.1158 39.4403C86.0703 39.4403 84.2853 38.9716 82.7607 38.0341C81.236 37.0966 80.0523 35.785 79.2095 34.0994C78.3667 32.4138 77.9453 30.4441 77.9453 28.1903C77.9453 25.9271 78.3667 23.9479 79.2095 22.2528C80.0523 20.5578 81.236 19.2415 82.7607 18.304C84.2853 17.3665 86.0703 16.8977 88.1158 16.8977C90.1612 16.8977 91.9463 17.3665 93.4709 18.304C94.9955 19.2415 96.1792 20.5578 97.022 22.2528C97.8648 23.9479 98.2862 25.9271 98.2862 28.1903C98.2862 30.4441 97.8648 32.4138 97.022 34.0994C96.1792 35.785 94.9955 37.0966 93.4709 38.0341C91.9463 38.9716 90.1612 39.4403 88.1158 39.4403ZM88.13 35.875C89.4557 35.875 90.5542 35.5246 91.4254 34.8239C92.2966 34.1231 92.9406 33.1903 93.3572 32.0256C93.7834 30.8608 93.9964 29.5777 93.9964 28.1761C93.9964 26.7841 93.7834 25.5057 93.3572 24.3409C92.9406 23.1667 92.2966 22.2244 91.4254 21.5142C90.5542 20.804 89.4557 20.4489 88.13 20.4489C86.7947 20.4489 85.6868 20.804 84.8061 21.5142C83.9349 22.2244 83.2862 23.1667 82.8601 24.3409C82.4434 25.5057 82.2351 26.7841 82.2351 28.1761C82.2351 29.5777 82.4434 30.8608 82.8601 32.0256C83.2862 33.1903 83.9349 34.1231 84.8061 34.8239C85.6868 35.5246 86.7947 35.875 88.13 35.875ZM103.368 39V9.90909H107.615V20.7188H107.871C108.117 20.2642 108.472 19.7386 108.936 19.142C109.4 18.5455 110.044 18.0246 110.868 17.5795C111.692 17.125 112.781 16.8977 114.135 16.8977C115.896 16.8977 117.468 17.3428 118.851 18.233C120.233 19.1231 121.318 20.4062 122.104 22.0824C122.899 23.7585 123.297 25.7756 123.297 28.1335C123.297 30.4915 122.904 32.5133 122.118 34.1989C121.332 35.875 120.252 37.1676 118.879 38.0767C117.506 38.9763 115.939 39.4261 114.178 39.4261C112.852 39.4261 111.768 39.2036 110.925 38.7585C110.091 38.3134 109.438 37.7926 108.964 37.196C108.491 36.5994 108.126 36.0691 107.871 35.6051H107.516V39H103.368ZM107.53 28.0909C107.53 29.625 107.752 30.9697 108.197 32.125C108.643 33.2803 109.286 34.1847 110.129 34.8381C110.972 35.482 112.004 35.804 113.226 35.804C114.495 35.804 115.555 35.4678 116.408 34.7955C117.26 34.1136 117.904 33.1903 118.339 32.0256C118.785 30.8608 119.007 29.5492 119.007 28.0909C119.007 26.6515 118.789 25.3589 118.354 24.2131C117.928 23.0672 117.284 22.1629 116.422 21.5C115.57 20.8371 114.504 20.5057 113.226 20.5057C111.995 20.5057 110.953 20.8229 110.101 21.4574C109.258 22.0919 108.619 22.9773 108.183 24.1136C107.748 25.25 107.53 26.5758 107.53 28.0909Z" fill="#138DE5"/>
<path d="M154.859 17.5511C154.708 16.2064 154.083 15.1648 152.984 14.4261C151.886 13.678 150.503 13.304 148.837 13.304C147.643 13.304 146.611 13.4934 145.74 13.8722C144.869 14.2415 144.192 14.7528 143.709 15.4062C143.235 16.0502 142.999 16.7841 142.999 17.608C142.999 18.2992 143.16 18.8958 143.482 19.3977C143.813 19.8996 144.244 20.321 144.774 20.6619C145.314 20.9934 145.892 21.2727 146.507 21.5C147.123 21.7178 147.714 21.8977 148.283 22.0398L151.124 22.7784C152.052 23.0057 153.003 23.3134 153.979 23.7017C154.954 24.09 155.858 24.6013 156.692 25.2358C157.525 25.8703 158.197 26.6562 158.709 27.5938C159.23 28.5312 159.49 29.6534 159.49 30.9602C159.49 32.608 159.064 34.071 158.212 35.3494C157.369 36.6278 156.143 37.6364 154.533 38.375C152.932 39.1136 150.996 39.483 148.723 39.483C146.545 39.483 144.661 39.1373 143.07 38.446C141.479 37.7547 140.233 36.7746 139.334 35.5057C138.434 34.2273 137.937 32.7121 137.842 30.9602H142.246C142.331 32.0114 142.672 32.8873 143.268 33.5881C143.875 34.2794 144.646 34.7955 145.584 35.1364C146.531 35.4678 147.568 35.6335 148.695 35.6335C149.935 35.6335 151.038 35.4394 152.004 35.0511C152.98 34.6534 153.747 34.1042 154.305 33.4034C154.864 32.6932 155.143 31.8646 155.143 30.9176C155.143 30.0559 154.897 29.3504 154.405 28.8011C153.922 28.2519 153.264 27.7973 152.43 27.4375C151.607 27.0777 150.674 26.7604 149.632 26.4858L146.195 25.5483C143.865 24.9138 142.018 23.9811 140.655 22.75C139.301 21.5189 138.624 19.8902 138.624 17.8636C138.624 16.1875 139.078 14.7244 139.987 13.4744C140.896 12.2244 142.127 11.2538 143.68 10.5625C145.233 9.86174 146.985 9.51136 148.936 9.51136C150.906 9.51136 152.643 9.85701 154.149 10.5483C155.664 11.2396 156.857 12.1913 157.729 13.4034C158.6 14.6061 159.054 15.9886 159.092 17.5511H154.859ZM173.798 39.4403C171.648 39.4403 169.797 38.9811 168.244 38.0625C166.7 37.1345 165.507 35.8324 164.664 34.1562C163.831 32.4706 163.414 30.4962 163.414 28.233C163.414 25.9981 163.831 24.0284 164.664 22.3239C165.507 20.6193 166.681 19.2888 168.187 18.3324C169.702 17.3759 171.473 16.8977 173.499 16.8977C174.73 16.8977 175.924 17.1013 177.079 17.5085C178.234 17.9157 179.271 18.5549 180.19 19.4261C181.108 20.2973 181.833 21.429 182.363 22.821C182.893 24.2036 183.158 25.8845 183.158 27.8636V29.3693H165.815V26.1875H178.996C178.996 25.0701 178.769 24.0805 178.315 23.2188C177.86 22.3475 177.221 21.661 176.397 21.1591C175.583 20.6572 174.626 20.4062 173.528 20.4062C172.335 20.4062 171.293 20.6998 170.403 21.2869C169.522 21.8646 168.84 22.6222 168.357 23.5597C167.884 24.4877 167.647 25.4962 167.647 26.5852V29.071C167.647 30.5294 167.903 31.7699 168.414 32.7926C168.935 33.8153 169.659 34.5966 170.587 35.1364C171.515 35.6667 172.6 35.9318 173.84 35.9318C174.645 35.9318 175.379 35.8182 176.042 35.5909C176.705 35.3542 177.278 35.0038 177.761 34.5398C178.244 34.0758 178.613 33.5028 178.869 32.821L182.888 33.5455C182.567 34.7292 181.989 35.7661 181.156 36.6562C180.332 37.5369 179.295 38.2235 178.045 38.7159C176.804 39.1989 175.388 39.4403 173.798 39.4403ZM194.22 39.483C192.838 39.483 191.588 39.2273 190.47 38.7159C189.353 38.1951 188.467 37.4422 187.814 36.4574C187.17 35.4725 186.848 34.2652 186.848 32.8352C186.848 31.6042 187.085 30.5909 187.558 29.7955C188.032 29 188.671 28.3703 189.476 27.9062C190.281 27.4422 191.18 27.0919 192.175 26.8551C193.169 26.6184 194.182 26.4384 195.214 26.3153C196.521 26.1638 197.582 26.0407 198.396 25.946C199.211 25.8419 199.803 25.6761 200.172 25.4489C200.541 25.2216 200.726 24.8523 200.726 24.3409V24.2415C200.726 23.0009 200.375 22.0398 199.675 21.358C198.983 20.6761 197.951 20.3352 196.578 20.3352C195.148 20.3352 194.021 20.6525 193.197 21.2869C192.383 21.9119 191.82 22.608 191.507 23.375L187.516 22.4659C187.989 21.1402 188.68 20.0701 189.589 19.2557C190.508 18.4318 191.564 17.8352 192.757 17.4659C193.95 17.0871 195.205 16.8977 196.521 16.8977C197.393 16.8977 198.316 17.0019 199.291 17.2102C200.276 17.4091 201.195 17.7784 202.047 18.3182C202.909 18.858 203.614 19.6297 204.163 20.6335C204.713 21.6278 204.987 22.9205 204.987 24.5114V39H200.839V36.017H200.669C200.394 36.5663 199.982 37.1061 199.433 37.6364C198.884 38.1667 198.179 38.607 197.317 38.9574C196.455 39.3078 195.423 39.483 194.22 39.483ZM195.143 36.0739C196.318 36.0739 197.321 35.8419 198.155 35.3778C198.998 34.9138 199.637 34.3078 200.072 33.5597C200.518 32.8021 200.74 31.9924 200.74 31.1307V28.3182C200.589 28.4697 200.295 28.6117 199.859 28.7443C199.433 28.8674 198.946 28.9763 198.396 29.071C197.847 29.1562 197.312 29.2367 196.791 29.3125C196.27 29.3788 195.835 29.4356 195.484 29.483C194.661 29.5871 193.908 29.7623 193.226 30.0085C192.554 30.2547 192.014 30.6098 191.607 31.0739C191.209 31.5284 191.01 32.1345 191.01 32.892C191.01 33.9432 191.398 34.7386 192.175 35.2784C192.951 35.8087 193.941 36.0739 195.143 36.0739ZM210.644 39V17.1818H214.749V20.6477H214.977C215.374 19.4735 216.075 18.5502 217.079 17.8778C218.092 17.196 219.238 16.8551 220.516 16.8551C220.781 16.8551 221.094 16.8646 221.454 16.8835C221.823 16.9025 222.112 16.9261 222.32 16.9545V21.017C222.15 20.9697 221.847 20.9176 221.411 20.8608C220.976 20.7945 220.54 20.7614 220.104 20.7614C219.101 20.7614 218.206 20.9744 217.42 21.4006C216.643 21.8172 216.028 22.3996 215.573 23.1477C215.119 23.8864 214.891 24.7292 214.891 25.6761V39H210.644ZM234.405 39.4403C232.293 39.4403 230.475 38.9621 228.95 38.0057C227.435 37.0398 226.27 35.7093 225.456 34.0142C224.642 32.3191 224.234 30.3778 224.234 28.1903C224.234 25.9744 224.651 24.0189 225.484 22.3239C226.318 20.6193 227.492 19.2888 229.007 18.3324C230.522 17.3759 232.307 16.8977 234.362 16.8977C236.019 16.8977 237.497 17.2055 238.794 17.821C240.091 18.4271 241.138 19.2794 241.933 20.3778C242.738 21.4763 243.216 22.7595 243.368 24.2273H239.234C239.007 23.2045 238.486 22.3239 237.672 21.5852C236.867 20.8466 235.787 20.4773 234.433 20.4773C233.25 20.4773 232.213 20.7898 231.322 21.4148C230.442 22.0303 229.755 22.911 229.263 24.0568C228.77 25.1932 228.524 26.5379 228.524 28.0909C228.524 29.6818 228.766 31.0549 229.249 32.2102C229.732 33.3655 230.413 34.2604 231.294 34.8949C232.184 35.5294 233.231 35.8466 234.433 35.8466C235.238 35.8466 235.967 35.6998 236.621 35.4062C237.284 35.1032 237.838 34.6723 238.283 34.1136C238.737 33.5549 239.054 32.8826 239.234 32.0966H243.368C243.216 33.5076 242.757 34.767 241.99 35.875C241.223 36.983 240.196 37.8542 238.908 38.4886C237.629 39.1231 236.128 39.4403 234.405 39.4403ZM252.157 26.0455V39H247.91V9.90909H252.1V20.733H252.37C252.881 19.5587 253.663 18.6259 254.714 17.9347C255.765 17.2434 257.138 16.8977 258.833 16.8977C260.329 16.8977 261.636 17.2055 262.754 17.821C263.88 18.4366 264.752 19.3551 265.367 20.5767C265.992 21.7888 266.305 23.304 266.305 25.1222V39H262.058V25.6335C262.058 24.0331 261.646 22.7926 260.822 21.9119C259.998 21.0218 258.852 20.5767 257.384 20.5767C256.38 20.5767 255.481 20.7898 254.685 21.2159C253.899 21.642 253.279 22.267 252.825 23.0909C252.379 23.9053 252.157 24.8902 252.157 26.0455ZM281.376 39.4403C279.226 39.4403 277.375 38.9811 275.822 38.0625C274.278 37.1345 273.085 35.8324 272.242 34.1562C271.409 32.4706 270.992 30.4962 270.992 28.233C270.992 25.9981 271.409 24.0284 272.242 22.3239C273.085 20.6193 274.259 19.2888 275.765 18.3324C277.28 17.3759 279.051 16.8977 281.077 16.8977C282.308 16.8977 283.502 17.1013 284.657 17.5085C285.812 17.9157 286.849 18.5549 287.768 19.4261C288.686 20.2973 289.411 21.429 289.941 22.821C290.471 24.2036 290.737 25.8845 290.737 27.8636V29.3693H273.393V26.1875H286.575C286.575 25.0701 286.347 24.0805 285.893 23.2188C285.438 22.3475 284.799 21.661 283.975 21.1591C283.161 20.6572 282.204 20.4062 281.106 20.4062C279.913 20.4062 278.871 20.6998 277.981 21.2869C277.1 21.8646 276.418 22.6222 275.935 23.5597C275.462 24.4877 275.225 25.4962 275.225 26.5852V29.071C275.225 30.5294 275.481 31.7699 275.992 32.7926C276.513 33.8153 277.237 34.5966 278.165 35.1364C279.094 35.6667 280.178 35.9318 281.418 35.9318C282.223 35.9318 282.957 35.8182 283.62 35.5909C284.283 35.3542 284.856 35.0038 285.339 34.5398C285.822 34.0758 286.191 33.5028 286.447 32.821L290.467 33.5455C290.145 34.7292 289.567 35.7661 288.734 36.6562C287.91 37.5369 286.873 38.2235 285.623 38.7159C284.382 39.1989 282.967 39.4403 281.376 39.4403ZM295.449 39V17.1818H299.554V20.6477H299.781C300.179 19.4735 300.88 18.5502 301.884 17.8778C302.897 17.196 304.043 16.8551 305.321 16.8551C305.586 16.8551 305.899 16.8646 306.259 16.8835C306.628 16.9025 306.917 16.9261 307.125 16.9545V21.017C306.955 20.9697 306.652 20.9176 306.216 20.8608C305.78 20.7945 305.345 20.7614 304.909 20.7614C303.905 20.7614 303.01 20.9744 302.224 21.4006C301.448 21.8172 300.832 22.3996 300.378 23.1477C299.923 23.8864 299.696 24.7292 299.696 25.6761V39H295.449Z" fill="black"/>
<defs>
<linearGradient id="paint0_linear_1149_1758" x1="10.3411" y1="8.312" x2="40.7981" y2="38.769" gradientUnits="userSpaceOnUse">
<stop stop-color="#2AA4F4"/>
<stop offset="1" stop-color="#007AD9"/>
</linearGradient>
</defs>
</svg>
