<svg version="1.2" xmlns="http://www.w3.org/2000/svg" viewBox="0 0 1500 1000" width="1500" height="1000"><defs><linearGradient id="P" gradientUnits="userSpaceOnUse"/><linearGradient id="g1" x1="531.3" y1="410.8" x2="605.6" y2="542" href="#P"><stop offset="0" stop-color="#f08d9c" stop-opacity="0"/><stop offset="1" stop-color="#cd6578" stop-opacity=".4"/></linearGradient><linearGradient id="g2" x1="587.6" y1="269.3" x2="588.1" y2="250" href="#P"><stop offset="0" stop-color="#f08d9c" stop-opacity="0"/><stop offset="1" stop-color="#cd6578" stop-opacity=".4"/></linearGradient><linearGradient id="g3" x1="613.2" y1="252.6" x2="576.3" y2="213.6" href="#P"><stop offset="0" stop-color="#f08d9c" stop-opacity="0"/><stop offset="1" stop-color="#cd6578" stop-opacity=".4"/></linearGradient><linearGradient id="g4" x1="545.5" y1="222.7" x2="565.7" y2="203.6" href="#P"><stop offset="0" stop-color="#f08d9c" stop-opacity="0"/><stop offset="1" stop-color="#cd6578" stop-opacity=".4"/></linearGradient><linearGradient id="g5" x1="596.6" y1="213.7" x2="596.2" y2="230.1" href="#P"><stop offset="0" stop-color="#f08d9c" stop-opacity="0"/><stop offset="1" stop-color="#cd6578" stop-opacity=".4"/></linearGradient><linearGradient id="g6" x1="1009.5" y1="315" x2="980.8" y2="274.5" href="#P"><stop offset="0" stop-color="#f08d9c" stop-opacity="0"/><stop offset="1" stop-color="#cd6578" stop-opacity=".4"/></linearGradient><linearGradient id="g7" x1="1023.9" y1="267.2" x2="984.2" y2="225.3" href="#P"><stop offset="0" stop-color="#f08d9c" stop-opacity="0"/><stop offset="1" stop-color="#cd6578" stop-opacity=".4"/></linearGradient><linearGradient id="g8" x1="976.5" y1="258.5" x2="942.5" y2="224.5" href="#P"><stop offset="0" stop-color="#f08d9c" stop-opacity="0"/><stop offset="1" stop-color="#cd6578" stop-opacity=".4"/></linearGradient><linearGradient id="g9" x1="964.2" y1="531.4" x2="918.4" y2="463.7" href="#P"><stop offset="0" stop-color="#f08d9c" stop-opacity="0"/><stop offset="1" stop-color="#cd6578" stop-opacity=".4"/></linearGradient><linearGradient id="g10" x1="928.8" y1="483.7" x2="925.9" y2="479.4" href="#P"><stop offset="0" stop-color="#f08d9c" stop-opacity="0"/><stop offset="1" stop-color="#cd6578" stop-opacity=".4"/></linearGradient><linearGradient id="g11" x1="1329.7" y1="355.9" x2="1287.9" y2="346.8" href="#P"><stop offset="0" stop-color="#f08d9c" stop-opacity="0"/><stop offset="1" stop-color="#cd6578" stop-opacity=".4"/></linearGradient><linearGradient id="g12" x1="1297.1" y1="332.4" x2="1326.5" y2="332.4" href="#P"><stop offset="0" stop-color="#f08d9c" stop-opacity="0"/><stop offset="1" stop-color="#cd6578" stop-opacity=".4"/></linearGradient><linearGradient id="g13" x1="1322.1" y1="320" x2="1277.9" y2="273.5" href="#P"><stop offset="0" stop-color="#f08d9c" stop-opacity="0"/><stop offset="1" stop-color="#cd6578" stop-opacity=".4"/></linearGradient><linearGradient id="g14" x1="1276.7" y1="314.8" x2="1238.4" y2="276.5" href="#P"><stop offset="0" stop-color="#f08d9c" stop-opacity="0"/><stop offset="1" stop-color="#cd6578" stop-opacity=".4"/></linearGradient><linearGradient id="g15" x1="704.2" y1="848" x2="704.2" y2="645.6" href="#P"><stop offset="0" stop-color="#84c3ba" stop-opacity="0"/><stop offset="1" stop-color="#361c48" stop-opacity=".3"/></linearGradient><linearGradient id="g16" x1="353.7" y1="633.7" x2="432.5" y2="633.7" href="#P"><stop offset="0" stop-color="#84c3ba" stop-opacity="0"/><stop offset="1" stop-color="#361c48" stop-opacity=".3"/></linearGradient><linearGradient id="g17" x1="264.4" y1="302.6" x2="270.7" y2="276.7" href="#P"><stop offset="0" stop-color="#f08d9c" stop-opacity="0"/><stop offset="1" stop-color="#cd6578" stop-opacity=".3"/></linearGradient><linearGradient id="g18" x1="350.2" y1="258.6" x2="341.6" y2="266.3" href="#P"><stop offset="0" stop-color="#f08d9c" stop-opacity="0"/><stop offset="1" stop-color="#cd6578" stop-opacity=".3"/></linearGradient><linearGradient id="g19" x1="323.8" y1="260" x2="338" y2="260" href="#P"><stop offset="0" stop-color="#f08d9c" stop-opacity="0"/><stop offset="1" stop-color="#cd6578" stop-opacity=".3"/></linearGradient><linearGradient id="g20" x1="324.1" y1="263.7" x2="335.3" y2="263.7" href="#P"><stop offset="0" stop-color="#f08d9c" stop-opacity="0"/><stop offset="1" stop-color="#cd6578" stop-opacity=".3"/></linearGradient><linearGradient id="g21" x1="262.4" y1="258.8" x2="310.6" y2="214.4" href="#P"><stop offset="0" stop-color="#f08d9c" stop-opacity="0"/><stop offset="1" stop-color="#cd6578" stop-opacity=".3"/></linearGradient></defs><style>.a{fill:#372549}.b{fill:#eacdc2}.c{fill:none;stroke:#372549;stroke-linecap:round;stroke-linejoin:round;stroke-width:2.3}.d{fill:none;stroke:#372549;stroke-width:2.3}.e{fill:#b75d69}.f{fill:#2e203f}.g{fill:#f1e3d3}.h{fill:#d88c9a}.i{fill:#6d597a}.j{fill:none;stroke:#372549;stroke-linecap:round;stroke-linejoin:round;stroke-width:.9}.k{opacity:.6;mix-blend-mode:multiply;fill:url(#g1)}.l{opacity:.8;mix-blend-mode:multiply;fill:url(#g2)}.m{opacity:.6;mix-blend-mode:multiply;fill:url(#g3)}.n{opacity:.4;mix-blend-mode:multiply;fill:url(#g4)}.o{opacity:.8;mix-blend-mode:multiply;fill:url(#g5)}.p{fill:none;stroke:#372549;stroke-linecap:round;stroke-linejoin:round;stroke-width:.6}.q{fill:none;stroke:#372549;stroke-linecap:round;stroke-linejoin:round;stroke-width:2.1}.r{fill:none;stroke:#372549;stroke-width:2.1}.s{fill:#eaac8b}.t{fill:none;stroke:#382b31;stroke-linecap:round;stroke-linejoin:round;stroke-width:.5}.u{fill:none;stroke:#382b31;stroke-linecap:round;stroke-linejoin:round;stroke-width:1.1}.v{opacity:.8;mix-blend-mode:multiply;fill:url(#g6)}.w{fill:none;stroke:#372549;stroke-linecap:round;stroke-linejoin:round;stroke-width:.5}.x{opacity:.6;mix-blend-mode:multiply;fill:url(#g7)}.y{opacity:.6;mix-blend-mode:multiply;fill:url(#g8)}.z{fill:none;stroke:#372549;stroke-linecap:round;stroke-linejoin:round;stroke-width:1.1}.A{fill:#99c1b9}.B{opacity:.8;mix-blend-mode:multiply;fill:url(#g9)}.C{fill:url(#g10)}.D{fill:#774c60}.E{fill:none;stroke:#372549;stroke-width:.5}.F{fill:#f2d0a9}.G{fill:none;stroke:#eaac8b;stroke-linecap:round;stroke-linejoin:round;stroke-width:.9}.H{opacity:.8;mix-blend-mode:multiply;fill:url(#g11)}.I{opacity:.3;mix-blend-mode:multiply;fill:#f2d0a9}.J{opacity:.5;mix-blend-mode:multiply;fill:url(#g12)}.K{opacity:.6;mix-blend-mode:multiply;fill:url(#g13)}.L{opacity:.6;mix-blend-mode:multiply;fill:url(#g14)}.M{fill:none;stroke:#372549;stroke-linecap:round;stroke-linejoin:round;stroke-width:1}.N{opacity:.5;mix-blend-mode:multiply;fill:url(#g15)}.O{fill:none;stroke:#372549;stroke-width:1}.P{fill:#b56576}.Q{opacity:.5;fill:#6d597a}.R{fill:none;stroke:#eacdc2;stroke-width:.6}.S{fill:none;stroke:#372549;stroke-width:2.4}.T{fill:none;stroke:#372549;stroke-linecap:round;stroke-linejoin:round;stroke-width:2.4}.U{opacity:.5;mix-blend-mode:multiply;fill:url(#g16)}.V{opacity:.8;mix-blend-mode:multiply;fill:url(#g17)}.W{opacity:.5;mix-blend-mode:multiply;fill:url(#g18)}.X{fill:none;stroke:#372549;stroke-linecap:round;stroke-linejoin:round;stroke-width:1.3}.Y{mix-blend-mode:multiply;fill:url(#g19)}.Z{mix-blend-mode:multiply;fill:url(#g20)}.a0{opacity:.5;mix-blend-mode:multiply;fill:url(#g21)}.a1{opacity:.5;fill:#eacdc2}.a2{fill:none;stroke:#774c60;stroke-linecap:round;stroke-linejoin:round;stroke-width:1.8}.a3{fill:none;stroke:#774c60;stroke-linecap:round;stroke-linejoin:round;stroke-width:1.5}</style><path class="a" d="m740.8 358.7l-7.9 104c-0.3 3.9-2.1 7.3-4.7 9.7q-0.6 0.7-1.4 1.2c-2.8 2.1-6.3 3.2-10 2.9l-174.9-14 5.1-129.2 179.8 9.4c2.3 0.1 4.5 0.8 6.4 1.9q1.6 0.8 2.8 2c3.3 3 5.2 7.4 4.8 12.1z"/><path class="b" d="m728.2 472.4q-0.6 0.7-1.4 1.2c3.8-17.9 11-106 10.2-119.4-0.2-4.4-1.8-7.5-3.8-9.6q1.6 0.8 2.8 2c1.2 2 1.9 4.5 2.1 7.5 0.7 10.8-5.8 96.7-9.9 118.3z"/><path class="a" d="m549.6 547.1l154.5 4c3.2 0.1 4.3 3.9 1.5 5.3l-45.7 22.8c-1.2 0.6-2.6 0.9-4 0.8l-167-4.4z"/><path class="c" d="m656.4 575.5l9.9 194.3"/><path class="c" d="m701 554.8l30.9 155.6"/><path class="c" d="m705.3 577.8l-48.5 26.4-151.6-1.6"/><path class="d" d="m709.3 470.1c0 0 1.4 57-12.7 81.2"/><path class="e" d="m509.2 734.9l-3.9 10.2c-8.8 6.2-21.7-3.7-21.7-3.7l3.7-13z"/><path class="f" d="m506.6 765.3q0 0.3 0 0.7c-0.2 0.9-0.3 1.8-0.4 2.6-0.2 0.8-0.8 1.5-1.5 1.8-5.6 2.7-29.3 14-36.6 18-6.8 3.8-33.8 4.7-31.8-6q0.1-1 0.7-2.2c0.2-0.3 0.3-0.5 0.5-0.8 2.2-3.8 7.1-8.7 12.7-13.8q0.3-0.2 0.5-0.4c4.7-4.1 9.8-8.3 14.5-12q0 0 0 0c0.2-0.2 0.4-0.3 0.6-0.5 3-2.3 5.8-4.4 8.1-6.1q0.3-0.2 0.5-0.4c3.9-2.9 6.5-4.7 6.5-4.7 0 0 3.7-7 10-5.5 6.3 1.4 6.8 10 6.8 10 0 0 5.4 0.8 8.5-3 0 0 0.1 1.6 0.3 4.1q0 0.4 0.1 0.8 0 0 0 0c0.3 4.7 0.6 11.8 0 17.4z"/><path class="g" d="m506.6 765.3q0 0.3 0 0.7-4.3 2.6-8.7 5-0.1 0-0.1 0l-0.1 0.1c-4.9 2.8-10 5.4-15.1 7.9-5.9 2.9-12.3 5.7-19 7.3-3.8 0.9-7.4 1.3-10.9 1.2-3.3-0.1-6.5-0.6-9.4-1.6-1.4-0.5-3.1-1.2-4.5-2.5-0.9-0.9-1.6-2.1-1.8-3.2 0.2-0.3 0.3-0.5 0.5-0.8 0 1.2 0.6 2.6 1.7 3.6 1.3 1.2 3 1.9 4.3 2.4 5.8 1.9 12.7 2.1 20 0.4 3.4-0.8 6.7-1.9 9.9-3.3q0.3-0.1 0.5-0.2c2.9-1.2 5.7-2.5 8.5-3.8q7.5-3.7 14.9-7.8 0.3-0.2 0.6-0.4c2.9-1.6 5.8-3.3 8.7-5z"/><path class="g" d="m474 782.4l-0.5 0.2q0 0-0.1-0.1c-5-8.3-13.7-14.6-23.2-16.9q0.3-0.2 0.5-0.4c9.6 2.4 18.2 8.7 23.2 17.1q0 0 0.1 0.1z"/><path class="g" d="m506.6 747.9c-5.6 6-8.8 14.3-8.7 22.4q0 0.4 0 0.7h-0.1l-0.1 0.1h-0.4c0-0.2 0-0.3 0-0.4-0.1-8.7 3.3-17.3 9.2-23.6q0 0.4 0.1 0.8 0 0 0 0z"/><path class="g" d="m480 761.1q-0.1 0-0.2 0c-0.1 0-0.1 0-0.2-0.1-3.3-4.5-8.8-7.5-14.4-7.8 0.2-0.2 0.4-0.3 0.6-0.5 5.6 0.5 10.9 3.5 14.2 8 0.1 0.1 0.1 0.3 0 0.4z"/><path class="g" d="m486.1 757.1q-0.1 0-0.1 0c-0.1 0-0.2 0-0.3-0.1-2.7-4.6-6.9-8.3-11.8-10.4q0.3-0.2 0.5-0.4c4.9 2.2 9.1 6 11.8 10.5 0.1 0.1 0 0.3-0.1 0.4z"/><path class="e" d="m548.5 747l-4.1 10.7c-9.3 6.5-22.8-3.8-22.8-3.8l3.9-13.7z"/><path class="a" d="m545.8 778.9q-0.1 0.4-0.1 0.7c-0.1 1-0.3 1.9-0.4 2.8-0.2 0.8-0.8 1.5-1.6 1.9-5.9 2.8-30.7 14.6-38.4 18.9-7.2 4-35.5 4.9-33.4-6.4q0.2-1 0.8-2.2c0.1-0.3 0.3-0.6 0.5-0.9 2.3-4 7.4-9.1 13.3-14.5q0.3-0.2 0.6-0.4c4.8-4.3 10.2-8.7 15.2-12.6q0 0 0 0c0.2-0.2 0.4-0.3 0.6-0.5 3.1-2.4 6.1-4.6 8.5-6.5q0.3-0.2 0.6-0.4c4.1-3 6.8-4.9 6.8-4.9 0 0 3.9-7.3 10.5-5.8 6.6 1.6 7.1 10.6 7.1 10.6 0 0 5.6 0.8 8.9-3.2 0 0 0.2 1.7 0.4 4.3q0 0.4 0 0.8 0 0 0 0c0.4 4.9 0.7 12.4 0.1 18.3z"/><path class="g" d="m545.8 778.9q-0.1 0.4-0.1 0.7-4.5 2.7-9.1 5.3-0.1 0-0.1 0l-0.1 0.1c-5.2 2.9-10.5 5.7-15.9 8.3-6.2 3-12.9 6-19.9 7.7-4 0.9-7.8 1.3-11.5 1.2-3.5-0.1-6.8-0.6-9.8-1.7-1.5-0.5-3.3-1.2-4.8-2.6-0.9-1-1.6-2.1-1.8-3.3 0.1-0.3 0.3-0.6 0.5-0.9 0 1.3 0.6 2.7 1.7 3.8 1.4 1.3 3.2 2 4.6 2.5 6.1 2 13.4 2.2 21 0.4 3.5-0.8 7-2 10.4-3.4q0.3-0.1 0.5-0.2c3.1-1.3 6-2.7 8.9-4 5.3-2.6 10.6-5.4 15.7-8.3q0.3-0.1 0.6-0.3c3.1-1.7 6.1-3.5 9.2-5.3z"/><path class="g" d="m511.5 796.8l-0.5 0.3q-0.1-0.1-0.1-0.1c-5.3-8.8-14.4-15.4-24.4-17.8q0.3-0.2 0.6-0.4c10 2.5 19 9.1 24.3 18 0 0 0.1 0 0.1 0z"/><path class="g" d="m545.7 760.6c-5.8 6.4-9.2 15-9.1 23.6q0 0.3 0 0.7h-0.1l-0.1 0.1h-0.4c0-0.2 0-0.3 0-0.5-0.1-9 3.4-18.1 9.7-24.7q0 0.4 0 0.8 0 0 0 0z"/><path class="g" d="m517.8 774.5q-0.1 0-0.2 0c-0.1 0-0.1 0-0.2-0.1-3.5-4.8-9.2-7.8-15.1-8.2 0.2-0.2 0.4-0.3 0.6-0.5 5.8 0.5 11.5 3.6 15 8.4 0.1 0.1 0 0.3-0.1 0.4z"/><path class="g" d="m524.2 770.3q0 0-0.1 0c-0.1 0-0.2 0-0.3-0.1-2.8-4.8-7.3-8.7-12.4-11q0.3-0.2 0.6-0.4c5 2.4 9.4 6.3 12.3 11.1 0.1 0.1 0.1 0.3-0.1 0.4z"/><path class="e" d="m559.5 358.8l-11.7 75.2-45.8-0.1c0 0-0.4-16.8 2.3-42.2 2.7-25.5 7.9-48.6 7.9-48.6z"/><path class="a" d="m607.2 303.5l-66.9 5c-5.3 0.4-9.7-4-9.4-9.3 0.3-5.2 0-11.9-2.2-19.2-4.9-16 4.2-25.4 11-30.8 6.9-5.4 6.2-12.7 4.7-22.2-1.5-9.4 6.3-14.8 10-20.2 3.6-5.5-1.8-22.1 10.9-38.5 12.8-16.3 29.8-12.1 29.8-12.1z"/><path class="h" d="m683.7 290.2l-3.3 80.8 3.6 72.5-144.7 1.6c0 0-0.8-0.8 0.7-12.9 1.5-12.1 8.5-57.2 8.5-57.2 0 0-3-2.9-6-22.1-3-19.2 10.8-70.9 14.4-73.1 3.6-2.3 33.5-9.7 33.5-9.7 63.1-5 93.3 20.1 93.3 20.1z"/><path class="i" d="m540.6 425.2c0 0 88.4 12.1 142.3-1.3 0 0 19.7 41.6 23.8 63.6 4.1 22-0.7 54.7-10.4 67.7-9.8 13.1-72.3 41.9-72.3 41.9 0 0-24.9 84.6-43.6 112.3-18.8 27.6-28.1 41.1-28.1 41.1l-31.4-9.1c0 0 26.8-157.2 36.7-177.7 9.9-20.5 32.6-50.8 32.6-50.8z"/><path class="i" d="m611.3 494.5l-37.7 72.4-59.7 169.7-35.1-3.3q0.4-19 0.8-38.1c0.7-26.9 0.9-53.7 0.4-80.6-0.4-22.2-1.4-44.5 5.1-66 5.8-19.2 16.2-36.8 29.5-51.8 7-7.8 14.7-15.7 18.7-25.5 3.7-9.2 7.3-46.1 7.3-46.1z"/><path class="j" d="m536.1 432.5c0 0 65.3 15.4 141.6-2.5"/><path class="j" d="m593 439.1q-0.6 14.7-2 29.4c-0.1 1.5-0.3 3-1 4.3-0.7 1.3-2.2 2.4-3.7 2.1-1.2-0.2-2.1-1.3-2.6-2.4-0.4-1.2-0.4-2.5-0.4-3.7-0.1-10.3 0.7-20.5 2.3-30.6"/><path class="j" d="m572.8 483.5l11.8 22.1c0 0-26.1 32.1-30.2 55.5-4.2 23.3-33.5 180.3-33.5 180.3"/><path class="j" d="m675.9 434.8c7.6 19.3 15.3 38.9 17.4 59.5 2.1 20.6-2 42.8-15.6 58.4-9.8 11.2-23.6 18.1-37.2 24.1-5.6 2.5-11.4 5-15.7 9.3-4.3 4.3-6.8 10-9.1 15.6q-31.3 73.9-62.5 147.8"/><path class="j" d="m693.7 497.9c-13.4-4-25.6-12.1-34.4-23.1-8.8-10.9-14.1-24.6-14.9-38.6"/><path class="e" d="m579.9 526.3c-1.5 2.8-11.4 9.3-14.3 8.1-2.9-1.3-22.7-15.3-25.8-22.4-3-7.1-4.2-17.7-4.2-17.7 0 0-13.7-14.1-24.9-32.3-11.3-18.3-8.5-34.9-8.5-34.9l37.4 5.6 10.6 51.7c0 0 14.2 9.2 17.8 14.8 3.7 5.7 13.5 24.2 11.9 27.1z"/><path class="k" d="m579.9 526.3c-1.5 2.8-11.4 9.3-14.3 8.1-2.9-1.3-22.7-15.3-25.8-22.4-3-7.1-4.2-17.7-4.2-17.7 0 0-13.7-14.1-24.9-32.3-11.3-18.3-8.5-34.9-8.5-34.9l37.4 5.6 10.6 51.7c0 0 14.2 9.2 17.8 14.8 3.7 5.7 13.5 24.2 11.9 27.1z"/><path class="j" d="m551.2 517l18.2 16.5"/><path class="j" d="m555.7 511.4l18 19.9"/><path class="j" d="m562.1 506.7l16.3 21.3"/><path class="j" d="m518.5 431.9c0 0 11.5-5.6 21.9-1.2"/><path class="e" d="m703.3 463.2c-26 24.4-98.9 40.7-109.3 42.9l0.1 0.1c-8.9 11.6-22.2 16.8-24.1 18.7-2 1.8-11 12.1-16.2 15.2-5.2 3-24.9-0.8-23.5-5.7 1.5-5.1 13.9-25.1 22.4-32.8 7.8-7.1 29.5-13.2 33.5-14.3l85.8-62.9-1.6-45.8 49.5-5.7c0 0-0.3 10.7-0.5 42.1 0 5.7-0.5 10.7-1.1 15.2-0.7 7.9-3.5 22.2-15 33z"/><path class="j" d="m672 424.4c0 0 13.8 1.7 24.2 8.4"/><path class="j" d="m561.6 523.2l-14.1 17.9"/><path class="j" d="m557.2 516.2l-17.6 23.8"/><path class="j" d="m550.6 512.7l-17 25.3"/><path class="h" d="m551.3 360.6l-42.9-5.1c0 0 2.4-15.9 15.6-43.4 13.2-27.4 32.9-32.3 32.9-32.3z"/><path class="h" d="m681.2 288.3c0 0 31.3 21.9 36.9 56.3 3.8 23.4 4.6 35 4.6 35l-62.6 6.5z"/><path class="j" d="m554.1 314.7c0 0-11.4 22.9-10.5 45.5"/><path class="j" d="m545.8 322.3l0.4 13.9"/><path class="j" d="m667.6 331.2l3.4 54.3"/><path class="j" d="m663.9 333.4l4.6 14.8"/><path class="e" d="m632.6 271.8c0 0-2.7 7-20.3 11.8-17.5 4.8-22.3-10.8-22.3-10.8l1.8-14.3 1.3-9.8 32.1-22.8 7-5z"/><path class="l" d="m632.2 221.4c-0.3 12.9-5.5 25.7-14.3 35.1-2.8 3-6 5.7-9.7 7.2-3.8 1.5-8.3 1.7-11.8-0.3-1.9-0.9-3.5-2.8-4.6-4.9l1.3-9.8 32.1-22.8c2.4-1.5 4.7-3 7-4.5z"/><path class="e" d="m635.5 205.5c-0.4 5.5-1.6 11.1-3.3 16.4-1.9 6.2-4.6 12-7.7 17q-1.9 3-4.2 5.4c-5.9 6-14.1 10-23.5 10-9.1-0.1-15.6-4.3-20.7-9.2q-2.4-2.4-4.3-5.3c-4-5.8-6.3-13-7.7-20.4-0.4-2.6-0.8-5.3-1-8-0.2-3.1-0.3-6.2-0.3-9.2q0-3.2 0.4-6.5c1.7-13.7 8.4-26.9 20.8-33.3 2.2-1.2 4.7-2.1 7.2-2.7 11-2.5 22.8 0.6 31.2 8.2 10.4 9.6 14 23.6 13.1 37.6z"/><path class="m" d="m630 224.8c-0.2 8.4-7.3 15.1-15.7 14.8-8.4-0.2-15.1-7.2-14.8-15.6 0.2-8.5 7.2-15.1 15.6-14.9 8.5 0.2 15.1 7.3 14.9 15.7z"/><path class="n" d="m579.2 227.1c-0.1 5.4-3.1 10.1-7.4 12.7-4-5.8-6.3-13-7.7-20.4-0.4-2.6-0.8-5.3-1-8q0.6 0 1.2 0c8.5 0.3 15.1 7.3 14.9 15.7z"/><path class="a" d="m580.7 200.7c0.9 2.4 2 4.7 2.4 7.2 0.4 2.6-0.1 5.3-1.3 7.6-0.7 1.2-1.6 2.2-2.2 3.2-0.6 0.9-0.9 2-0.6 3.1 0.6 2.1 3 3.5 5.2 4.4 0.2 0.1 0.2 0.3 0.2 0.5-0.1 0.1-0.3 0.2-0.4 0.1-1.3-0.3-2.5-0.8-3.6-1.5-1.1-0.7-2.2-1.8-2.6-3.2-0.4-1.4 0-3 0.8-4.1 0.8-1.1 1.7-2 2.3-3 1.3-2 2-4.5 1.7-7-0.3-2.5-1.3-4.8-2.3-7.2 0 0 0-0.1 0.1-0.2 0.1 0 0.2 0 0.3 0.1q0 0 0 0z"/><path class="o" d="m584.5 221c0.6-0.1 1.2-0.4 1.8-0.5 1.9-0.4 3.8 0.8 5.2 2.1 0.7 0.6 1.4 1.6 0.9 2.3-0.3 0.6-1.1 0.6-1.7 0.6-0.6-0.1-1.4-0.1-1.9 0.3 0 0.5-0.5 0.9-1 1.1-0.5 0.1-1.1 0-1.6-0.1-1.7-0.2-3.3-0.6-4.8-1.4-1.5-0.7-3.8-2.7-2.7-4.7 1.3-2.3 4.1 0.5 5.8 0.3z"/><path class="a" d="m591.5 221.6c0.5 0.5 1 1.1 1.3 1.8 0.3 0.6 0.5 1.5 0 2.3-0.4 0.8-1.6 0.9-2.3 0.6-0.7-0.3-1.3-0.7-1.9-1l0.6-0.3-0.1 1.7c0 0.3-0.2 0.5-0.4 0.4-0.3 0-0.5-0.2-0.5-0.4q0 0 0-0.1l0.2-1.7c0-0.3 0.2-0.4 0.4-0.4q0.1 0 0.2 0.1c0.7 0.3 1.2 0.8 1.8 1 0.6 0.3 1.1 0.2 1.5-0.3 0.3-0.4 0.3-1.1 0-1.7-0.2-0.6-0.7-1.2-1.1-1.7-0.1 0-0.1-0.2 0-0.3 0 0 0.2 0 0.3 0z"/><path class="a" d="m599.7 206.6c1.6-0.2 3 1 3.1 2.6 0.2 1.6-1 3-2.6 3.1-1.6 0.1-3-1-3.1-2.6-0.1-1.6 1-3 2.6-3.1z"/><path class="a" d="m573.4 206c1.5-0.2 2.9 1 3.1 2.6 0.1 1.6-1.1 3-2.7 3.1-1.5 0.1-2.9-1-3.1-2.6-0.1-1.6 1.1-3 2.7-3.1z"/><path class="j" d="m582.3 232.9c0 0 10.6 2.9 17.8-2.2"/><path class="p" d="m588.1 238.5c0 0 5.1 1.3 8.7-1.3"/><path class="a" d="m597 196.3c4.8-0.9 10.6 0.9 13.7 4.7 0.3 0.4 0.6 0.8 0.7 1.3 0.5 3.3-21.8 0.5-17.1-4.7q0.1-0.1 0.3-0.3c0.7-0.5 1.6-0.8 2.4-1z"/><path class="a" d="m577.9 197.5q0.2 0.1 0.3 0.3c3.5 5-13.9 6.4-13.5 3.4 0.1-0.5 0.3-0.8 0.6-1.1 2.5-3.3 7.1-4.7 10.8-3.6 0.6 0.2 1.3 0.4 1.8 1z"/><path class="a" d="m576.8 170.2c-1.6 3-2.6 6.3-4.6 9.1-2.1 2.7-5.3 4.9-6.3 8.2-1.1 3.8 1 7.9 0.9 11.9-0.1 3.2-1.8 6.1-3.1 9.1-1.4 2.9-2.5 6.2-1.6 9.2-4.1-9.5-4.8-20.4-2-30.3 2.8-10 9.1-18.9 17.6-24.9 1.2-0.8 9.8-5.5 7.1-1-0.9 1.5-3.2 2.6-4.4 3.9-1.4 1.4-2.6 3.1-3.6 4.8z"/><path class="a" d="m697.4 308.5c0 0-2 0.3-5.4 0.8-2.2-6.4-5.1-14-13.8-18.9 0.3 0.5 5.1 8.6 6.2 20-13.6 1.8-34.6 4.8-47.7 6.6 0.4-5.3-0.1-10.6-1.6-15.9-0.4 5.6-1.4 11.2-3.1 16.5-4.2 0.6-6.9 1-6.9 1-5.6 0.7-10-4.8-7.9-10.1 1.7-4.1 4.3-7.7 5.3-12.1 1.6-7.7-6-8.7-8.7-22.7-2.8-13.9 7.9-17.8 11.5-29.3 3.7-11.6-8.4-10.7-15.5-23.7-0.2-0.4-0.4-0.7-0.5-1.1q-0.1-0.1-0.1-0.2c-0.3-0.6-0.6-1.1-0.7-1.7q-0.2-0.5-0.4-1.1c-0.7-2.6-0.8-5.1-0.4-7.5 0.3-5.2 1.4-10.5-1.1-14.9-1.5-2.6-3.9-4.4-5.3-6.9-1.3-2.4-1.6-5.2-2.4-7.9-1.6-5.9-5.7-11-10.9-14.1-1-0.6-4.5-1.1-4.8-2.5-1.5-6.4 7.3-9.6 20.6-12.2 13.1-2.6 24.2 2.9 33 8.1 19.5 11.6 19.2 35.5 19 45.4-0.3 9.8 6.1 9 14 18.2 7.8 9.3 6.2 15.3 6.3 27.1 0.1 10.6 9.9 14.2 17.2 19.8q0.9 0.8 1.7 1.5c4.8 4.4 7.3 10.3 9.2 16.5 2.4 7.6 3.9 19.9-6.8 21.3z"/><path class="a" d="m1131.2 347.3l-7.2 93.4c-0.2 3.5-1.8 6.5-4.1 8.8q-0.6 0.5-1.3 1c-2.5 1.8-5.6 2.8-9 2.6l-157.2-12.6 4.6-116.1 161.6 8.5c2.1 0.1 4 0.7 5.7 1.6q1.4 0.8 2.6 1.9c2.9 2.6 4.6 6.6 4.3 10.9z"/><path class="b" d="m1119.9 449.5q-0.6 0.5-1.3 1c3.4-16.1 9.9-95.3 9.2-107.3-0.3-3.9-1.7-6.7-3.5-8.7q1.4 0.8 2.6 1.9c1 1.8 1.7 4 1.9 6.7 0.6 9.7-5.2 86.9-8.9 106.4z"/><path class="a" d="m959.4 516.5l138.7 3.7c3 0.1 3.9 3.5 1.4 4.7l-41.1 20.5c-1.1 0.5-2.3 0.8-3.5 0.7l-150.1-3.9z"/><path class="q" d="m1055.3 542.1l7.1 177.2"/><path class="q" d="m1095.4 523.4l32 160.2"/><path class="q" d="m1099.3 544.2l-43.6 23.7-136.3-1.5"/><path class="r" d="m1102.8 447.4c0 0 1.3 51.2-11.4 73"/><path class="h" d="m975 684.2l19.7 24-19.1 19.7-17.6-25.2z"/><path class="i" d="m967.4 732c-0.4-3-0.8-6.1 0.1-9 0.9-2.8 3.6-5.4 6.6-5.1 2.3 0.2 4.1 1.9 5.7 3.5 6.3-3.6 10.6-10.4 11.3-17.6 6.3 5.2 11.4 9.4 16.8 16.5 1.6 1.9 2.5 4.3 2.5 6.8 0 2.6-3.2 6.4-4.5 8.8-5.2 9.2-9.2 18.9-14.4 28.1-5.1 9-10.6 18.5-19.9 23.2-2.8 1.5-6.6 2.3-9.1 0.3-2.8-2.2-2.4-6.5-1.7-10 2.7-14.9 8.7-30.6 6.6-45.5z"/><path class="h" d="m981.4 718.6l-15.3 25.9-22.1-19.2 9.4-19.8z"/><path class="i" d="m944 725.3c0 0 6.8-5.7 15.1-2.6 8.3 3.2 6.8 18.3 6.8 18.3 0 0 1 0.5 2.9-1.2 0 0-7.6 20.3-9.6 24.2-1.9 3.8-10.3 34.1-19.9 35.4-13.8 1.9-37.4-10.1-33.9-25.2 2.4-10.8 16.3-23 21.9-29.6 5.5-6.6 12-14.9 16.7-19.3z"/><path class="s" d="m1091.3 513.4c0 0-39.7 96.8-49.9 112-10.1 15.2-57.8 99.7-57.8 99.7l-40.4-15.9 48.4-111.3 8.7-78.7-49.9-40.6c0 0 96.8-36.8 140.9 34.8z"/><path class="s" d="m1020.1 475.4l16.8 36.3-86.1 51 32.5 107.3-39.4 39.6c0 0-65.2-144.2-61.4-163.2 3.8-18.9 67.9-67.8 67.9-67.8z"/><path class="t" d="m979.9 723.6c44.7-67 81.3-139.4 108.6-215.1"/><path class="t" d="m1066.4 488.4c-3.1 18.9-0.1 38.6 8.3 55.7"/><path class="u" d="m989.1 498.9l11.2 20.3-8.7 78.7-47.7 111.7"/><path class="t" d="m969.5 649.3q-11.8-36.2-23.6-72.5c-1.5-4.5-3-9.4-1.3-13.8 1.6-4 5.3-6.6 8.9-9q23.3-15.3 46.5-30.7"/><path class="t" d="m944.6 554.7c2.6 2.2 4.8 4.9 6.3 8"/><path class="h" d="m1038.8 266.2c-0.2 4-0.2 8 0.3 11.1 0 0-18.7 40.7-33.3 40.7-14.7 0-16-18.7-16-18.7l2.6-15 2.5-15.1 41.5-17.4 4.3-1.8c0 0-0.2 1-0.4 2.7-0.5 3.1-1.2 8.3-1.5 13.5z"/><path class="v" d="m1040.3 252.7c-0.5 3.1-1.2 8.3-1.5 13.5-4.8 7-11 12.9-18.2 17.3-4.3 2.6-9 4.6-14 5.2-4.9 0.5-10.2-0.8-14-4.1q-0.1-0.1-0.2-0.3l2.5-15.1 41.5-17.4c1.3 0.1 2.7 0.3 3.9 0.9z"/><path class="e" d="m979.9 179.9c2.8-0.7 4.4 3.6 4.7 5.9 0.4 2.2 0 4.5-0.3 6.8-1.5 9-3.6 18.1-7.6 26.3-0.8 1.7-2.2 3.6-4 3.3-1.1-0.2-1.9-1.2-2.2-2.2-0.4-1-0.5-2-0.6-3.1-0.4-2.7-1.5-5.3-2.2-8-0.7-2.7-1-5.6 0-8.2 1-2.5 3-4.3 4.2-6.6 1.3-2.5 1.4-5.3 2.3-8 0.7-2.4 3.1-5.6 5.7-6.2z"/><path class="h" d="m1051.8 222.6c-0.4 6.1-1.7 12.3-3.7 18.3q-0.9 2.9-2 5.7c-0.1 0.3-0.3 0.6-0.4 0.9q0 0 0 0c-1.8 4.5-3.9 8.7-6.2 12.4q-2.2 3.5-4.8 6.1c-6.5 6.8-15.7 11.3-26.3 11.2-10.2-0.1-17.5-4.8-23.2-10.3q-2.7-2.7-4.9-5.9c-1.8-2.7-3.3-5.6-4.5-8.8-1.4-3.2-2.4-6.7-3.2-10.2q-0.2-1-0.4-2.1-0.2-0.8-0.4-1.7 0-0.2 0-0.3c-0.6-2.9-0.9-5.8-1.2-8.7-0.2-2.9-0.3-5.7-0.3-8.5 0-0.6 0-1.2 0-1.9q0-3.6 0.5-7.2c1.9-15.4 9.4-30.2 23.2-37.4 2.6-1.3 5.3-2.3 8.2-3 12.3-2.8 25.5 0.7 34.9 9.2 11.7 10.7 15.7 26.4 14.7 42.2z"/><path class="e" d="m970.8 170c0.1-5.1 2.1-11.1 7.7-11.7 7.2-0.8 14 3.1 21.1 2.7 5.6-0.3 10.6-3.3 16.1-4.5 6.4-1.4 13.4-0.1 19 3.4 4.6 2.9 8.2 7.3 12.7 10.3 3.6 2.5 7.8 4.1 11.3 6.9 7.2 5.7 9.9 16.4 6.3 24.9-1.3 3.2-3.5 6.6-2.5 9.9 0.3 1.2 1.1 2.3 1 3.5 0 1.7-1.5 2.9-2.8 3.9q-6 4.3-11.9 8.7c-0.9 0.6-1.7 1.3-2.7 1.5-2.9 0.8-5.8-2.2-6.2-5.2-0.4-3 0.8-6 1.8-8.9 0.6-1.5 1.1-3.4 0.2-4.8-0.5-0.8-1.3-1.3-2-1.8-3-2.4-4.3-6.7-3.2-10.4 0.5-1.6 1.4-3.3 0.9-4.9-0.7-1.8-3-2.5-4.8-2.2-1.9 0.4-3.6 1.5-5.3 2.2-7 3.1-16 0.1-19.8-6.6-0.9-1.5-1.6-3.2-3.1-4.1-2.8-1.6-6 0.8-8.8 2.4-7 3.8-16.7 1.8-21.6-4.6-2.3-3-3.5-6.8-3.4-10.6z"/><path class="h" d="m1041.3 229.1c0 0 11.6-16.5 21.1-12.5 9.5 4.1-0.5 30.7-10 30.9-9.5 0.3-12.8-6.8-12.8-6.8z"/><path class="w" d="m1057.7 223.9c-2.8 4.1-4.5 9.1-4.7 14.1"/><path class="w" d="m1055.1 229.3c1.8 1.4 2.7 3.3 3.2 5.6"/><path class="e" d="m1041.5 220.4c0.7-3 3.6-7.2 7.2-5.9 1.5 0.6 2.5 2.2 2.6 3.9 0.2 1.6-0.3 3.2-0.8 4.8-1.3 4-2.9 7.9-4.9 11.6-0.4 0.8-0.9 1.6-1.8 1.7-1.3 0.2-2.1-1.3-2.4-2.6-1.1-4.4-0.8-9.1 0.1-13.5z"/><path class="x" d="m1041.7 237.5c-0.3 9.1-7.8 16.2-16.9 16-9-0.3-16.2-7.8-15.9-16.8 0.2-9.1 7.8-16.3 16.8-16 9.1 0.2 16.2 7.8 16 16.8z"/><path class="y" d="m985.9 237.5c-0.2 6.7-4.4 12.3-10.1 14.7-1.4-3.2-2.4-6.7-3.2-10.2q-0.2-1-0.4-2.1-0.2-0.8-0.4-1.7 0-0.2 0-0.3c-0.6-2.9-0.9-5.8-1.2-8.7-0.2-2.9-0.3-5.7-0.3-8.5 8.8 0.4 15.8 7.9 15.6 16.8z"/><path class="e" d="m1045.7 247.5q0 0 0 0c-1.8 4.5-3.9 8.7-6.2 12.4q-2.2 3.5-4.8 6.1c-6.5 6.8-15.7 11.3-26.3 11.2-10.2-0.1-17.5-4.8-23.2-10.3q-2.7-2.7-4.9-5.9c-3.7-5.5-6.2-12.1-7.7-19 3.2-1.1 14.1-4.1 28.2-4.4 5.3-0.1 10.5 1.1 15.2 3.1 4.9 2 10.2 5.1 15.3 3.5 5.6-1.7 7.9-9.2 13.8-9.7-1.4 3.9-0.1 8.9 0.6 13z"/><path class="h" d="m1000.8 239.9c3.4 0.2 6.1 2.6 9.2 3.7 3.1 1 6.7 0.8 9.1 2.9 1.7 1.6 2.3 4.1 1.9 6.4-0.5 2.2-1.8 4.3-3.4 6-3.7 4.2-9 7.1-14.7 7.6-5.7 0.5-11.7-1.6-15.4-5.8-2.8-3.1-6-11.5-2.2-15.1 1.5-1.5 5.1-2 7.1-3 2.6-1.4 5.4-3 8.4-2.7z"/><path class="a" d="m992.4 209.3c-2.3 4.9-3.9 10.1-4.6 15.4-0.2 2.7-0.5 5.4 0.1 7.9 0.5 2.4 2.2 4.5 4.7 5.6 0.1 0.1 0.2 0.3 0.1 0.5 0 0.1-0.2 0.2-0.3 0.1-1.4-0.3-2.7-1-3.8-2-1.1-1-1.9-2.4-2.3-3.8-0.8-2.9-0.6-5.8-0.3-8.5 0.7-5.6 2.6-11 5.4-15.7 0.2-0.3 0.5-0.4 0.8-0.2 0.2 0.1 0.3 0.4 0.2 0.6z"/><path class="a" d="m999.8 233.1c0.9 0.3 1.2 1.1 1.5 1.7 0.2 0.7 0.5 1.5 0.1 2.3-0.5 1.1-1.8 0.7-2.3 0.6l-2.1-0.2 0.6-0.8 0.8 1.8c0.1 0.3 0 0.5-0.2 0.6-0.2 0.1-0.4 0-0.5-0.2l-1.1-1.7c-0.1-0.3 0-0.6 0.2-0.7q0.2-0.1 0.4-0.1l2.1 0.5c0.3 0.1 0.6 0.2 0.9 0.2 0.3-0.1 0.5-0.1 0.6-0.3 0.2-0.5 0.2-1.2 0-1.8-0.2-0.6-0.6-1.3-1.1-1.5-0.1-0.1-0.2-0.2-0.1-0.3 0-0.1 0.1-0.1 0.2-0.1z"/><path class="z" d="m988.8 246.2c0 0 11.5 3.4 21.2-2.6"/><path class="w" d="m995.6 250.9c0 0 5.6 1.8 9.4-1.8"/><path class="a" d="m1011.4 219.6c0 1.8-1.5 3.3-3.3 3.3-1.8 0-3.3-1.5-3.3-3.3 0-1.8 1.5-3.2 3.3-3.2 1.8 0 3.3 1.4 3.3 3.2z"/><path class="a" d="m983.8 218.8c0 1.8-1.5 3.3-3.3 3.3-1.9 0-3.4-1.5-3.4-3.3 0-1.9 1.5-3.4 3.4-3.4 1.8 0 3.3 1.5 3.3 3.4z"/><path class="e" d="m1021.1 206.5c0.6 0.8 1 1.7 1.1 2.7 0.1 1-0.3 2.1-1.1 2.7-0.8 0.6-1.9 0.6-2.8 0.4-1-0.3-1.8-0.7-2.7-1.2-2.6-1.1-5.4-1.7-8.3-1.6-0.9 0-2.1 0.1-2.8-0.6-0.6-0.7-0.5-1.8-0.2-2.7 2.7-7.3 13.3-4.8 16.8 0.3z"/><path class="e" d="m988.8 206.9c0.2 0.9 0.1 2-0.6 2.5-0.8 0.6-1.8 0.3-2.7 0.2-2.7-0.6-5.5-0.5-8.1 0.3-0.9 0.2-1.8 0.5-2.7 0.6-0.9 0.1-1.9-0.1-2.6-0.7-0.6-0.7-0.8-1.8-0.6-2.7 0.2-1 0.8-1.8 1.5-2.5 4-4.2 14.4-5 15.8 2.3z"/><path class="i" d="m1098.5 452.8c-1.6 14.7-7.1 61.4-7.1 61.4 0 0-18.6-30.4-50.2-35.6-31.5-5.3-90.8 0-90.8 0 0 0 0.9-13 0.9-19.6l-19.3 22.2c0 0-16.3-24.2-18.5-45.9-0.7-7.3 1.9-15.2 3.8-22.1 8-28.7 15.3-56.4 27.2-83.6 3.6-8.2 10.6-17.8 17.4-23.8 7.4-6.5 17.5-9.5 26.3-13.7 0 0 14.7 25.7 14.7 25.7l48.1-32.8c0 0 26.5 6.6 45.4 26 0 0 3.7 127.1 2.1 141.8z"/><path class="A" d="m1002.4 317.9c0.2-0.6 6.3-16.6 6.3-16.6 0 0 14-8.2 20.8-15.2 6.9-7.1 9.2-13.6 9.2-13.6 0 0 4.3 1.1 6.5 3.2 2.3 2.2 5.8 9.3 5.8 9.3 0 0-18.2 22.8-26.9 28.7l-2.9-3.6-22 27.8-6.9-29.9-5.1 5.6-3-20.7c0 0 4.1-7.7 8.5-10.2l0.3 10.3 8.3 8.3z"/><path class="t" d="m1024.1 313.7c0 0-8.3-11-10.3-12.4"/><path class="t" d="m987.2 313.6l10.9-12.5"/><path class="i" d="m1084.4 304.2c0 0 18.1 5.9 25.2 24.4 7 18.4 5.1 115.1 2.4 129.8-2.7 14.6-91.3 43.6-91.3 43.6l-16.8-38.5 63.4-25.5-4.9-101.9z"/><path class="t" d="m1061 364.6q2.2 6.5 4.3 13"/><path class="t" d="m1096.6 471.4c-22.5 14.1-75.9 30.6-75.9 30.6l-16.6-36.9 62.9-29-1.9-79.6"/><path class="t" d="m1066.7 337.4c3.3-13.4 14.1-26.4 23.9-31.8"/><path class="t" d="m1092.9 473.3c-1-14.2 7.6-28.6 20.6-34.4"/><path class="t" d="m953.6 355.8c0 0 2.6 43.4 1.9 57.5-0.8 14.1-5.5 55.4-5.1 65.3"/><path class="t" d="m948.6 364.3l6.5 23.3"/><path class="t" d="m954.1 338.3c-0.2-12.2 3.5-24.5 10.2-34.7"/><path class="t" d="m936.7 413.7c6.2-1.9 12.9-1.2 18.4 2.4"/><path class="t" d="m939.7 407.4c3.1-0.5 6.4 0 9.2 1.5 2.7 1.5 5 3.9 6.2 6.8"/><path class="t" d="m919.6 405.6c5 11.9 3.4 26.3-4 36.9"/><path class="h" d="m934.5 478.9c0 0 0.5-14.3 16.4-20.5 0 0 17.7 15.4 20.3 18.7 2.5 3.2 14.1 33.6 12.3 35.9-1.9 2.4-4.7-1.6-4.7-1.6 0 0 0.9 5.9-2.4 7.4-3.2 1.4-4.9-1.6-4.9-1.6 0 0-1.2 4.1-3.6 3.2-2.3-0.9-12.6-9.9-15.3-13.5-2.7-3.6-18.1-28-18.1-28z"/><path class="B" d="m934.5 478.9c0 0 0.5-14.3 16.4-20.5 0 0 17.7 15.4 20.3 18.7 2.5 3.2 14.1 33.6 12.3 35.9-1.9 2.4-4.7-1.6-4.7-1.6 0 0 0.9 5.9-2.4 7.4-3.2 1.4-4.9-1.6-4.9-1.6 0 0-1.2 4.1-3.6 3.2-2.3-0.9-12.6-9.9-15.3-13.5-2.7-3.6-18.1-28-18.1-28z"/><path class="h" d="m1012.8 485.3c0 0-3.1 3.8-6 8.6-3 4.8-13.4 9.1-15.3 9.9-1.8 0.7-13.1 7.9-17.1 12.2-4 4.3-5.8 4.4-6.8 3.1-1.1-1.2 1.5-4.2 1.5-4.2 0 0-5.9 4.3-8.3 4.8-2.4 0.6-4-1.2-5.1-3.5-1-2.3 3-7.4 3-7.4 0 0-4.9 4.6-6.7 2.1-1.9-2.6 12.8-17.2 21.4-24.1 8.5-6.8 32.4-17.7 32.4-17.7z"/><path class="t" d="m958.7 508.8c0 0 9.7-12.1 16-16.2"/><path class="t" d="m956.9 518c0 0 13.8-15.2 21.2-19.7"/><path class="t" d="m968.8 515.2c0 0 5.5-7.1 11-9.8"/><path class="C" d="m932 481.2l22.4-20"/><path class="a" d="m1270.5 375.6l130.8 16.7c8.7 1.1 14.3 9.6 12.1 18l-36.1 133.7c-2 7.5-9.6 12-17.2 10.2l-135.3-32z"/><path class="d" d="m1335.8 630.1l27.3-80.5"/><path class="a" d="m1132 622.2l98.6-16.9q1-0.2 2 0l118.3 23.6c5.9 1.2 6 9.5 0.2 10.8l-103.3 14.6-116.3-21.3c-5.7-1.5-5.4-9.8 0.5-10.8z"/><path class="c" d="m1247.3 650.2l-10.8 191.8"/><path class="c" d="m1341.4 639.5l26 161.8"/><path class="c" d="m1274.6 647.1l6 108.3"/><path class="c" d="m1343.5 653.9l-96.5 21.6-90.7-23.5"/><path class="a" d="m1157.3 841.9q0 0.2-0.1 0.4v0.1q0 0.4-0.1 0.8c-1 4.3-7.3 5-10.9 5.5q-0.9 0.1-1.8 0.2c-14.8 1.8-29.5 4.4-44 7.9q-10.3 2.4-20.4 5.5c-6 1.8-12.5 3.4-18.8 2.6q-0.7-0.1-1.4-0.3-0.3 0-0.5-0.1c-5.1-1.1-11.1-4-11.1-9.9 0-7.2 11.3-13.4 20.8-18.7q0.3-0.2 0.6-0.4c2-1.1 3.9-2.2 5.5-3.2 8.3-5.2 30.9-24.1 37.8-29.9 0.6-0.6 1.4-1 2.2-1.3q1.2-0.5 2.4-0.6l32.6-3.2c0.5 0 0.8 0.2 0.9 0.7h0.1q1 6.1 2 12.1 0.1 0.5 0.2 0.9c1.6 9.5 3.1 18.9 3.9 28.6 0 0.7 0.1 1.5 0.1 2.3z"/><path class="e" d="m1150 789.7l1.3 10.5c0 0-1.5 3.9-15 6.4-13.7 2.7-21.5-5.9-21.5-5.9l0.6-8.2z"/><path class="b" d="m1092.5 856.6q-0.1 0.1-0.1 0.1-0.2 0-0.3-0.2 0 0 0-0.1c-4.7-9.4-13.4-17.2-23.1-20.5q0.3-0.2 0.6-0.4c9.6 3.5 18.4 11.3 23 20.7v0.1c0.1 0.1 0 0.3-0.1 0.3z"/><path class="b" d="m1153.3 811c-4.9 10.7-7.4 22.4-7.1 34.2v0.1c0.1 0.1-0.1 0.3-0.2 0.3-0.2 0-0.3-0.2-0.3-0.3q0 0 0 0c-0.3-12.1 2.2-24.3 7.4-35.2q0.1 0.5 0.2 0.9z"/><path class="b" d="m1157.3 842.3h-0.1v0.1c-4.5 2.5-17 4.6-30.1 6.8-10.8 1.8-22.1 3.6-28.7 5.8-15.3 5-31.7 8.7-37.2 9.9q-0.7-0.1-1.4-0.3c3.2-0.6 17.5-3.7 32.3-8.2q0.2-0.1 0.5-0.2 2.8-0.8 5.6-1.7c6.7-2.2 17.9-4.1 28.8-5.9 6.7-1.1 13.3-2.2 18.7-3.3q0.3-0.1 0.5-0.1c4.9-1.1 8.7-2.1 10.8-3.3 0.1-0.1 0.2-0.1 0.3 0q0 0 0.1 0.1c0 0.1 0 0.3-0.1 0.3z"/><path class="a" d="m997.4 716.4q-0.2 0.1-0.4 0.2-0.3 0.2-0.7 0.4c-4.1 1.8-8.4-2.8-11-5.5q-0.6-0.6-1.2-1.3c-10.3-10.8-21.2-21-32.6-30.5q-8.1-6.8-16.6-13c-5.1-3.8-10.2-8-13.3-13.6h-0.1q-0.3-0.7-0.6-1.3-0.1-0.2-0.2-0.5c-2.2-4.7-3.4-11.2 1.4-14.8 5.7-4.3 17.5 1 27.4 5.5q0.3 0.1 0.6 0.2c2.1 1 4.1 1.8 6 2.5 9 3.6 37.7 10.4 46.4 12.5 0.9 0.2 1.7 0.5 2.5 1q1 0.6 1.8 1.5l22.1 24.3c0.3 0.3 0.3 0.8 0 1.1q-4.3 4.5-8.5 8.9-0.3 0.4-0.6 0.7c-6.7 7-13.3 13.8-20.6 20.2-0.6 0.5-1.1 1-1.8 1.5z"/><path class="e" d="m1034.9 679.3l-7.6 7.4c0 0-4 1-14.1-8.2-10.3-9.4-8.1-20.7-8.1-20.7l6.9-4.6z"/><path class="b" d="m946.9 673.2q-0.1 0-0.1 0-0.1-0.2 0-0.3 0-0.1 0-0.1c4.8-9.4 5.8-21.1 2.7-30.8q0.3 0.1 0.6 0.2c3 9.9 2 21.5-2.8 30.9h-0.1c0 0.1-0.2 0.2-0.3 0.1z"/><path class="b" d="m1019.8 694.7c-11.5 2.4-22.4 7.5-31.6 14.8h-0.1c-0.1 0.2-0.3 0.1-0.4 0-0.1-0.1 0-0.3 0.1-0.4q0 0 0 0c9.5-7.5 20.8-12.7 32.6-15.1q-0.3 0.4-0.6 0.7z"/><path class="b" d="m997 716.6c-4.7-2.1-13.8-10.8-23.5-20.1-7.9-7.6-16.1-15.5-21.8-19.5-13.1-9.3-25.9-20.2-30.1-23.9h-0.1q-0.3-0.7-0.6-1.3c2.4 2.1 13.5 11.8 25.9 21q0.2 0.1 0.5 0.3 2.3 1.7 4.7 3.4c5.8 4.1 14 12 21.9 19.6 4.9 4.8 9.8 9.4 13.9 13q0.2 0.2 0.4 0.4c3.7 3.2 6.9 5.7 9.1 6.6 0.1 0.1 0.1 0.2 0.1 0.3q0 0 0 0.1c-0.1 0.1-0.2 0.2-0.4 0.1z"/><path class="D" d="m1349.9 582.2c0 0-11 50.6-49.7 60-49.2 11.9-102.9-15.4-102.9-15.4l-36.8 26.5-7.4 142.3-51.6 3.7-15.9-165.5-46 60.8-38.4-45.7c0 0 67.9-117.6 124.6-126.4 56.8-8.9 162.5 24.7 162.5 24.7l63.8 21.3z"/><path class="E" d="m1033.6 685.7c15.4-16.9 25.3-38 38.1-56.9 12.8-18.9 25-40.9 47.5-45.1 18-3.4 40.7 8.9 57.5 16.2 20.1 8.7 40.4 17.4 61.6 23.2 21.1 5.9 45.2 6 63.5-6.1 17.4-11.6 26.5-32 34-51.5"/><path class="E" d="m1311.9 608.9c-9.4-6.6-16.3-16.7-18.9-27.8-2.7-11.2-1-23.3 4.5-33.4"/><path class="w" d="m1085.6 633.8c0 0 11.8-29.9 25.1-33.6 13.3-3.6 62.3 13.3 86.6 26.6"/><path class="w" d="m1160.5 653.3c-3.5-9.6-10.9-12-10.9-12"/><path class="w" d="m1156.5 639.1c0 0 4.6 4.2 4.3 14"/><path class="E" d="m1146.4 796.3q-0.7-59.8 0.4-119.6c0.1-8 0.4-16.2 3.4-23.5 3.2-7.6 9.3-13.7 16.2-18.2 6.9-4.6 16.6-8.5 24.2-11.6"/><path class="F" d="m1281 424.8c0 0-10.7 110.2-25.8 113.9-15.1 3.7-85.2-12.5-85.2-12.5l-1.4-33.2 57.8 4c0 0 21.8-80.3 30.6-104.6 8.9-24.4 21.8-29.1 21.8-29.1z"/><path class="G" d="m1226.4 497c0 0 8.1 1.5 14.4 5.2"/><path class="a" d="m1107.5 479.3c0 0-3.7-8.4 12.1-10.1 16.8-1.8 20.2 5.3 21 7.9z"/><path class="s" d="m1082.8 480.2l87.4-7.3 37.6 59.6-87-8.5-34.6-39.3z"/><path class="i" d="m1355.2 343.3l19.4 20.3c0 0 0.4 110.6-7 146.3-7.4 35.8-17.7 72.3-17.7 72.3 0 0 1.5-18.8-50.1-28.4-51.6-9.6-61.2-13.6-61.2-13.6 4.8-11.9 9.5-23.9 13.9-35.9 7-19 9.9-39.6 12.7-59.5 0-11.8 3.3-24.6 5-36.3 1.6-11.8 3.9-32.4 5.6-44.1z"/><path class="e" d="m1345.6 330.9c-12.2 21-48.4 43.7-48.4 43.7 0.9-5.6 1.5-17.2 2-29 0.4-10.8 0.7-21.8 0.8-28.7 0.1-4.3 0.1-7.1 0.1-7.1l42.8-24.3c0 0-0.2 1.6-0.4 4.4-0.2 3.1-0.5 7.6-0.5 12.8 0 3.1 0.1 6.3 0.3 9.7 0.8 14.1 3.3 18.5 3.3 18.5z"/><path class="H" d="m1342.5 289.9c-0.2 3.1-0.5 7.6-0.5 12.8-1.8 6.1-4.8 11.8-8.5 16.9-6.7 9.1-15.6 16.3-24.9 22.6-2.8 1.9-6.1 3.8-9.4 3.4 0.4-10.8 0.7-21.8 0.8-28.7 8.5 0.5 16.8-2.6 23.7-7.4 7.4-5.2 13.3-12.3 18.8-19.6z"/><path class="F" d="m1288.8 352.6c3.3 3.7 6.6 14.7 6.6 14.7l-20.5 5.8 6.5-24.8c0 0 4 0.6 7.4 4.3z"/><path class="I" d="m1288.8 352.6c3.3 3.7 6.6 14.7 6.6 14.7l-20.5 5.8 6.5-24.8c0 0 4 0.6 7.4 4.3z"/><path class="F" d="m1299.7 332.2c0 0 0.4 8.1-0.2 16.7-0.5 8.5-2.3 25.7-2.3 25.7-5.3-20.1-15.8-26.3-15.8-26.3z"/><path class="F" d="m1297.1 374.8l20-38.4 9.4 19z"/><path class="J" d="m1297.1 374.8l20-38.4 9.4 19z"/><path class="F" d="m1317.1 336.4c0 0 17.2-7.3 25.8-16.7l12.3 23.6-32.8 32.7z"/><path class="F" d="m1369.8 360.3c9.9 0.8 13.8 13.2 16.5 21 3.9 11.3 5.4 23.3 5.4 35.2-0.1 23.5-4.4 46.7-10.2 69.4-3 11.5-3.8 23.4-7.3 34.7-2.9 9.8-7.5 20.8-13.6 29.1-6.3 8.5-24.7 14.1-64.9 16.6-40.2 2.6-60.4 0.8-60.4 0.8l0.7-34.7c0 0 87.7-23.2 87.7-23.2 0.9-24 3-53.7 6.6-77.4 2.6-16.8 5.5-34.5 13.6-49.7 4.2-7.7 15.2-22.6 25.9-21.8z"/><path class="G" d="m1323.4 508.8c0 0 11-3.6 24.7 0.8"/><path class="G" d="m1371.6 360.6c9.7 24.3 11.9 50.6 10.2 76.8-1.7 26.2-7.4 51.9-13.2 77.5-2.5 11.1-5.4 22.7-13.2 31-8.5 9.1-21.4 12.4-33.7 14.4-28.1 4.7-56.8 4.4-85.3 4.2"/><path class="G" d="m1342.2 559.8c0-7.2 3-14.4 8.2-19.4 5.1-5.1 12.3-8 19.5-7.9"/><path class="e" d="m1235.4 561.4c0 0-5.1-2.1-13.1-3.2-7.9-1.1-39-7.2-42.5-8.3-3.5-1.1-22.5-12.1-24.1-14.2-1.7-2 0.1-4.4 0.1-4.4 0 0-2-1.3-4.1-3.3-1.3-1.4-1.6-4-1.7-5.9-0.1-1.5-0.6-4.6 0.9-5.6 0.4-0.3 1-0.3 1.4-0.2 1.4 0.3 2.7 1.2 3.9 1.9 1.4 0.8 2.7 1.6 4.1 2.4q7.3 4.1 14.6 8.4c0 0-19.2-20.3-17-23.5 2.2-3.1 22 15.1 25.4 17.9 3.3 2.8 23.9 9.2 23.9 9.2l-1.6-6.6c0 0-11.1-15.3-7.6-18.6 3.5-3.4 22.9 18.2 27.1 20.6 4.2 2.4 10.9 8.1 10.9 8.1z"/><path class="w" d="m1184.9 540c-1.5-0.3-6-2-6-2-4.4-2-28.4-15.6-28.4-15.6"/><path class="w" d="m1184 546.1c-1.4-0.2-6.3-2.1-6.3-2.1-3.5-1.4-21.5-12.3-21.5-12.3"/><path class="w" d="m1174.9 529l11.1 4.5"/><path class="a" d="m1365.4 262.7c0.1 6.5-2 12.7-4.1 18.7-2 6-4.2 12.3-8.1 16.7-4 4.4-10.3 6.4-14.9 2.9-3.2-2.6-4.8-7.3-5.9-11.8-2.5-10.4-3.3-21.5-1.3-32 2-10.5 7.1-20.3 14.7-26 6.2-4.8 12-6.8 13.9 3.1 1.8 9.2 5.7 18.9 5.7 28.4z"/><path class="e" d="m1332.7 314.1c-13.6 11.6-35.6 13.8-49.4 2.4-2.5-2.1-4.8-4.6-6.8-7.4-6.3-8.8-10-20.5-12.1-31.5-0.7-3.2-1.2-6.5-1.5-9.5q-0.1-0.9-0.2-1.8-0.3-2.6-0.4-5.3c-0.6-13.3 2.1-27 10.5-37.5 2.3-2.9 4.9-5.4 7.9-7.5 2.5-1.9 5.2-3.4 8.1-4.6 12.7-5.1 27.3-3.7 38.7 3.9 14.3 9.4 21.3 25.5 22.8 42.4 1.6 18.7-2.5 43.5-17.6 56.4z"/><path class="a" d="m1330.7 260.4c-1.4-4.3-4-9.3-0.6-13.3 4-4.9 12.6-4.9 14.3 2.2 0.9 3.6-0.8 7.2-2.1 10.6-1.4 3.8-2.4 7.8-2.8 11.8-0.1 1.1-0.1 2.3-0.7 3.2-0.6 0.9-2 1.5-2.9 0.9-0.6-0.4-0.8-1.2-1-1.8-1.4-4.6-2.8-9.1-4.2-13.6z"/><path class="a" d="m1328.1 214.1c3.1-4.7 4.8-9.8 11.5-9.6 3.5 0.1 6.7 1.7 9.4 4 4.7 4 7.5 9.9 9 15.9 1.5 6 1.6 12.3 1.8 18.5 0.1 3.1 0 6.6-2.3 8.8-3.8 3.6-11.6 0.9-14.4 5.4-1 1.6-0.9 3.6-0.8 5.5 0.2 1.9 0.4 3.9-0.5 5.6-0.8 1.7-3 2.9-4.6 1.9-0.8-0.5-1.2-1.4-1.6-2.2q-4.8-10.1-9.6-20.1c-2.1-4.6-4.3-9.2-4.7-14.2-0.4-7.2 3-13.7 6.8-19.5z"/><path class="a" d="m1310.4 236.8c-5.9-0.9-11.1-5.8-17-4.8-4.5 0.9-7.6 4.9-11.1 7.9-4.5 3.9-10.1 6.3-15.8 7-4.1 0.4-8.8-0.4-10.9-3.9-1.8-2.9-1.4-6.6-0.9-10 1-6.4 2-12.9 4.6-18.7 2.7-5.9 7.3-11.1 13.3-12.7 4.5-1.3 9.4-0.4 14-1.7 7.3-2 13.4-9.2 20.9-8.2 4.9 0.6 8.8 4.6 13.6 5.8 3.8 1 8.1 0.2 11.7 2.1 4.7 2.6 6 9.5 4.2 14.7-2.1 6.1-6.9 9.3-11 13.6-4.6 4.8-8.2 10.1-15.6 8.9z"/><path class="a" d="m1281.2 263c2.4 2 3.5 5.3 3.6 8.4 0.1 1.6 0 3.2-0.3 4.7-0.3 1.5-0.8 3-1.1 4.5-0.7 2.9-1.5 5.9 0.2 8.2 1.5 2.3 4.1 4 6.8 5.3 0.2 0.1 0.3 0.3 0.2 0.5-0.1 0.2-0.3 0.2-0.5 0.2-3-0.9-5.9-2.5-7.8-5.2-1-1.3-1.5-3.2-1.3-4.8 0.1-1.6 0.5-3.1 1-4.6 0.8-3 1.8-5.7 1.7-8.7 0-3-0.6-6.1-2.8-8.2-0.1-0.1-0.1-0.2 0-0.3 0.1 0 0.2 0 0.3 0z"/><path class="a" d="m1296.9 288.7c0.6 0.5 1.1 1.1 1.5 1.8 0.4 0.8 0.5 1.8-0.1 2.5-0.5 0.9-1.7 0.9-2.4 0.6-0.8-0.2-1.5-0.7-2.1-1l0.6-0.4-0.1 1.9c0 0.2-0.2 0.4-0.5 0.4-0.3 0-0.5-0.2-0.5-0.5q0 0 0 0l0.2-1.9c0-0.2 0.3-0.4 0.5-0.4q0.1 0 0.2 0.1c0.7 0.4 1.3 0.8 1.9 1.1 0.7 0.2 1.3 0.2 1.7-0.3 0.4-0.4 0.4-1.2 0.1-1.8-0.3-0.7-0.8-1.3-1.3-1.7-0.1-0.1-0.1-0.3 0-0.4 0.1-0.1 0.2-0.1 0.3 0z"/><path class="a" d="m1299.7 268.9c1.7-0.3 3.3 0.8 3.7 2.5 0.3 1.7-0.9 3.4-2.6 3.7-1.7 0.3-3.3-0.8-3.6-2.5-0.3-1.7 0.8-3.4 2.5-3.7z"/><path class="a" d="m1274.1 271.4c1.7-0.3 3.3 0.9 3.6 2.6 0.4 1.7-0.8 3.3-2.5 3.6-1.7 0.3-3.3-0.8-3.6-2.5-0.3-1.7 0.8-3.3 2.5-3.7z"/><path class="a" d="m1293.5 257.2c2.5-3.3 8.4-2.8 11.8-2.1 2.6 0.5 11.8 3.6 7.5 7.7-0.5 0.6-1.3 0.9-2 1.1-2.9 0.8-6.3 0.8-9.3 0.8-2.3 0-5.9 0.5-7.8-1.1-2-1.7-1.6-4.4-0.2-6.4z"/><path class="a" d="m1278.3 264.6c-1.5 1.6-4.7 1.5-6.7 1.7-2.6 0.3-5.6 0.6-8.2 0.2q-0.4-0.1-0.7-0.2-0.3-2.6-0.4-5.3c1.6-1.3 4-2.3 5-2.7 3-0.9 8.1-1.9 10.5 0.7 1.4 1.6 2.1 3.9 0.5 5.6z"/><path class="z" d="m1284.9 301.5c0 0 13.2 3.7 20.2-5.6"/><path class="w" d="m1293.9 306c0 0 5.4 0.1 7.7-2.7"/><path class="K" d="m1341.6 287.3c-0.3 10.1-8.7 18.1-18.8 17.8-10.1-0.3-18-8.7-17.7-18.7 0.2-10.1 8.6-18.1 18.7-17.8 10.1 0.3 18 8.7 17.8 18.7z"/><path class="L" d="m1282.2 296.4c-0.1 5-2.3 9.5-5.7 12.7-6.3-8.8-10-20.5-12.1-31.5h0.1c10 0.3 18 8.7 17.7 18.8z"/><path class="e" d="m1334.4 268.7c0 0 3.1-16.6 16.2-14.6 13.1 2 11.8 27.9 1.9 32.4-10 4.5-16-5.7-16-5.7z"/><path class="M" d="m1345.8 277.5c-0.2-4.7 1-9.4 3.4-13.5"/><path class="M" d="m1346.9 269.2c2.6 0.6 5 2.1 6.7 4.1"/><path class="a" d="m1318.2 226.6c4.8-5.7 13-1.7 16.1 3.5 1.8 3 2.7 6.5 3.4 9.9 2.2 10.6 3.3 21.6 1.1 32.1-0.3 1.3-0.8 2.9-2.1 3.3-1.6 0.6-3.1-0.7-4.3-1.8-2.3-2.4-4.7-4.9-6.1-7.9-1.2-2.8-1.5-5.9-2.4-8.8-1.4-4.6-4.2-8.7-6-13.1-1.7-4.3-3.1-13.2 0.3-17.2z"/><path class="F" d="m928.9 471.1v1.3c-0.1 19.6-1.2 39.7-2.5 52.8q0 0.5-0.1 1c-0.5 5.5-1.1 9.8-1.7 12-2.8 12-9.4 22.2-9.4 22.2l-27.6-92.1 18-106.1 0.7-3.9q0 0 0 0l1.1-6.5c0 0 15.6 45.7 19.7 77.4 1.5 11.1 1.9 26.3 1.8 41.9z"/><path class="F" d="m771.4 521.9c0.7-14.9 0.5-29.4-1.5-39.2-5.7-28.8-21.3-115.2-21.3-115.2 4.4-8.3 12.4-18.3 22.6-23.4 0.8-0.4 2.8-1.4 3.7-1.8 21.5-10.2 46.9-10.2 46.9-10.2 17.9-2 38.3 2.4 54.7 7.5 13.7 4.2 24.7 9 29.3 11.1 1.6 0.7 2.4 1.1 2.4 1.1 0 0-2.5 85.6-4.1 104.6-0.3 3.2-0.2 8.8 0.2 15.7 2 33.3 10.5 98.6 10.5 98.6l-149 9.9 0.1-0.1c0.2-2.1 4.3-30.9 5.5-58.6z"/><path class="F" d="m790.3 429l-16.5 62.6-0.2 0.9-7.8 29.3v58.8l-0.3 0.2-40.8 18.3c1.2-0.5-2.4-23.7-2.6-25.6q-0.5-4.1-0.8-8.1-0.1-0.7-0.1-1.3c-1.6-20.1-1.8-40.1-0.8-60q0-0.7 0-1.4c1.7-32.7 6.3-65.3 12.5-97.8 6.2-32.1 17.9-38.9 17.9-38.9l34.9 55.6 0.2 0.4q0.1 0 0.1 0z"/><path class="a" d="m765.9 581c-0.3 0-0.5-0.3-0.5-0.5v-58.7l19.7-80c0.1-0.2 0.3-0.4 0.6-0.3 0.3 0 0.4 0.3 0.4 0.6l-19.8 79.8v58.6c0 0.2-0.2 0.5-0.4 0.5z"/><path class="a" d="m786.2 422.1c-0.3 0-0.5-0.3-0.5-0.5-0.5-23.3-13.6-46.4-33.3-58.8-0.2-0.2-0.3-0.5-0.2-0.7 0.2-0.2 0.5-0.3 0.7-0.1 20 12.5 33.3 35.9 33.7 59.6 0.1 0.2-0.2 0.5-0.4 0.5q0 0 0 0z"/><path class="a" d="m753.6 535.4c-1.5 8-5 15.6-9.9 22-4.6 6.1-9.5 9.4-14.7 9.9q-0.6 0-1.1 0.1c-2.3 0-4.6-0.8-6.6-2q-0.1-0.7-0.1-1.3c2.2 1.6 5.1 2.5 7.7 2.2 4.9-0.4 9.6-3.6 14-9.4 4.9-6.4 8.2-13.8 9.8-21.7 1.6-7.9 1-15.3-1.6-21.4-3-7-9-12.3-15.7-13.7-5.4-1.2-11.2 0.5-15 4q0-0.7 0-1.4c4.1-3.2 9.8-4.7 15.2-3.6 7 1.5 13.3 7 16.4 14.3 2.7 6.3 3.2 13.9 1.6 22z"/><path class="a" d="m905.7 475.8c-0.2 0-0.4-0.2-0.5-0.5-2-15.9-0.6-62.2-0.6-62.7 0-0.3 0.2-0.5 0.5-0.5 0.3 0.1 0.5 0.3 0.5 0.5 0 0.5-1.4 46.8 0.6 62.6 0 0.3-0.2 0.5-0.4 0.6q-0.1 0-0.1 0z"/><path class="a" d="m904.5 444.3q-0.1 0-0.1 0c-0.3-0.1-0.4-0.3-0.4-0.6l5.9-27.5c0-0.2 0.3-0.4 0.6-0.3 0.2 0 0.4 0.3 0.3 0.5l-5.8 27.5c-0.1 0.2-0.3 0.4-0.5 0.4z"/><path class="a" d="m906.5 385.7c0 0.2-0.2 0.4-0.4 0.4q-0.1 0-0.1 0c-0.3 0-0.5-0.3-0.4-0.5 0.9-8.3 0.6-16 0-23.4l0.7-3.9c0.7 8.6 1.3 17.5 0.2 27.4z"/><path class="a" d="m928.9 471.1v1.3c-11.1 10-16.1 26.6-12.1 41 1 3.5 2.3 6.1 4 8.1 1.5 1.8 3.5 3.1 5.6 3.7q0 0.5-0.1 1c-2.3-0.6-4.5-2-6.3-4.1-1.7-2.1-3.1-4.9-4.1-8.4-4.2-15 1.2-32.5 13-42.6z"/><path class="h" d="m775.3 816l3.6 30.4-23.4 5.9-8.6-32.2z"/><path class="F" d="m797.1 872.4c-6 7.1-22.9 27.1-31.7 34.5-4.8 4.1-14 6.3-22.6 6.6-4.1 0.2-8.1-0.2-11.4-1q-1.1-0.2-2-0.5-0.6-0.2-1.2-0.4c-3-1.3-4.8-3.1-4.7-5.6 0.4-9.8 15.6-15.2 20.9-22.1v-0.1q0.6-0.7 1.1-1.8c4.2-9.5 3.5-37.3 3.5-37.3 0 0-3.7-9.9 3.2-8.2 3.2 0.8 6.3 7 6.3 7 0 0 17.2-6.2 18.9-12.7 0 0 5.3 6.1 6.1 10.2q0.1 0.6 0.5 1.2 0.1 0.3 0.4 0.7c2 3.2 7.1 8.4 10.8 15.2 0.1 0.2 0.2 0.4 0.3 0.6q0.7 1.4 1.3 2.9 1 2.2 1.7 4.7c0.5 2.1 0 4.4-1.4 6.1z"/><path class="s" d="m797.1 872.4c-6 7.1-22.9 27.1-31.7 34.5-4.8 4.1-14 6.3-22.6 6.6-4.1 0.2-8.1-0.2-11.4-1 7.3-0.7 14.4-3.8 20.5-8 7.2-4.9 13.3-11.2 19.3-17.5q10.9-11.4 21.7-22.7c1.1-1.1 2.4-2.4 3.9-2.7q1 2.2 1.7 4.7c0.5 2.1 0 4.4-1.4 6.1z"/><path class="g" d="m795.5 858.7c-7.5 5.1-14.7 13.6-20.5 20.5l-0.5 0.7c-6 7.1-12.5 14.6-20.2 20.6-7.6 5.8-16.8 10-24.9 11.5q-0.6-0.2-1.2-0.4c6.3-1 13.4-3.7 19.9-7.6q0.2-0.2 0.5-0.3 2.8-1.8 5.3-3.7c7.7-6 14.1-13.4 20.1-20.5l0.6-0.7c5.8-7 13-15.5 20.6-20.7 0.1 0.2 0.2 0.4 0.3 0.6z"/><path class="g" d="m748.7 903.9l-0.5 0.3q-0.1-0.1-0.1-0.2c-3.8-5.9-5.1-13.3-3.7-20.1v-0.1q0.6-0.7 1.1-1.8c-2.1 7.3-1 15.3 3.1 21.7q0 0.1 0.1 0.2z"/><path class="g" d="m784.4 842.9c-2.1 7.5-1.5 15.7 1.8 22.7l-0.6 0.2c-3.4-7.3-4-15.9-1.6-23.6z"/><path class="A" d="m782.9 681.4l-1.8 138.2-39.5 7.5c0 0-32.1-145.7-33.4-143.8z"/><path class="N" d="m782.9 681.4l-1.8 138.2-39.5 7.5c0 0-32.1-145.7-33.4-143.8z"/><path class="O" d="m760 682.6q4.2 68.7 8.3 137.5"/><path class="h" d="m626.4 840.4l-7.9 18.6c-15 1.3-24.2-11.7-24.2-11.7l6.5-19z"/><path class="F" d="m620.6 871.3c0.2 7.4 0.4 18.2-1.9 23.9q-0.1 0.3-0.2 0.6c-0.6 1.2-1.3 2.1-2.1 2.7-6.5 4.6-21.3-3.5-37.7-7.8-16.3-4.4-45.4-19.7-40.6-33.3q0 0 0-0.1c0 0 0.1-0.4 0.6-1 1.1-1.4 4.7-3.9 16.2-3.6 3.4 0.1 6.7 0 9.8-0.1q0.5-0.1 1-0.1c11.3-0.7 20.1-2.6 20.1-2.6l2.6-6c0 0 4-9.3 7.5-7.1 3.5 2.2 0.9 11.8 0.9 11.8 0 0 15.6 8.6 23.7 6.2 0 0 0.7 4.7 0.1 8.8-0.2 1.1-0.1 3.7 0 7q0 0.3 0 0.7z"/><path class="g" d="m602 893q-0.4-0.1-0.7-0.2c-16.6-3-31.9-8.4-45.8-15.9q-1.1-0.6-2.3-1.3-0.2-0.1-0.6-0.3c-3.3-2-6.6-4.3-9.3-7.3-3-3.6-4.6-7.8-4.6-11.7-0.5 0.6-0.6 1-0.6 1q0 0.1 0 0.1c0.3 3.8 1.9 7.7 4.8 11 3.4 4 7.9 6.7 12.3 9.1 18.6 10.1 39.9 16.2 63.3 18.3q0.1-0.3 0.2-0.6-8.5-0.7-16.7-2.2z"/><path class="g" d="m601.9 893.2l-0.6-0.2c2.2-6.8 6.1-13 11.1-18 1.8-1.9 4.7-4.4 8-4.4q0.2 0 0.4 0v0.7c-2.5-0.2-5 1.1-8 4.1-4.9 5-8.7 11.1-10.9 17.8z"/><path class="g" d="m565.7 852.5c-6.3 6.3-10.8 14.4-12.5 23.1 0 0.1 0 0.2 0 0.3l-0.7-0.1c0.1-0.2 0.1-0.3 0.1-0.5 1.8-8.5 6-16.5 12.1-22.7q0.5-0.1 1-0.1z"/><path class="A" d="m924.4 631.8q0 0.5-0.1 1c-1.5 7.3-3.7 13.6-6.2 18.4-6.4 11.8-21.9 18.4-40.9 23q-0.4 0.1-0.9 0.3c-10.3 2.4-21.5 4.4-32.9 6.3-30.8 5.2-138.9 10.5-138.9 10.5l-75.9 154.9-22.1-8.6q0 0 0 0h-0.2l-12.9-5c0 0 42.6-180.2 61.7-197.5 19.2-17.3 110.7-54.5 110.7-54.5l0.1-0.1 1.2-15.6 0.1-1 3.4-40.9 1.2-23.7q3.6-1.9 6.7-4.4 0.5-0.3 0.9-0.7h0.1c27.8-22.6 29.9-71.4 29.9-71.4l-37.3-75.4-0.3-0.5 2.8-0.7 28.7-7.3 43.6 73.8 29.6-73.1c13.7 4.2 24.7 9 29.3 11.1l-24.8 73.4 23.3 48 1.4 3.2c3.1 38.8 7.9 63.7 16.1 95q1.3 5 2.2 9.9 0.1 0.4 0.1 0.8c3.5 18.9 3.1 36.7 0.3 50.8z"/><path class="a" d="m606.5 837.6q-0.1 0-0.2 0c-0.2-0.1-0.3-0.4-0.2-0.6l53.7-145.3c6.9-18.7 14.7-39.8 30.6-54.2 13.5-12.2 31.2-18.1 48.3-23.9 4.2-1.3 8.4-2.8 12.5-4.2 10.5-3.8 21.9-9 27.1-19.2 3.9-7.7 3.5-16.9 3.2-25l-3-70.8c0-0.2 0.2-0.5 0.5-0.5 0.3 0.1 0.5 0.2 0.5 0.5l3 70.8c0.3 8.2 0.7 17.5-3.3 25.4-5.4 10.5-17 15.8-27.7 19.7-4.1 1.5-8.3 2.9-12.4 4.3-17.1 5.7-34.7 11.5-48 23.6-15.8 14.2-23.6 35.3-30.4 53.8l-53.7 145.3c-0.1 0.2-0.3 0.3-0.5 0.3z"/><path class="a" d="m802.3 566.2q-17.7 0-35.5-1.4c-0.3 0-0.5-0.2-0.4-0.5 0-0.3 0.2-0.5 0.5-0.4 50.2 3.7 100.4-0.5 149.3-12.8 0.3 0 0.5 0.1 0.6 0.4 0.1 0.3-0.1 0.5-0.4 0.6-37.4 9.4-75.7 14.1-114.1 14.1z"/><path class="a" d="m876.7 674.7q-0.1 0-0.2-0.1c-0.2-0.1-0.3-0.4-0.2-0.6 15.1-35 17.4-76 6.4-112.5-0.1-0.3 0-0.5 0.3-0.6 0.2-0.1 0.5 0.1 0.6 0.3 11.1 36.7 8.8 78-6.4 113.2-0.1 0.2-0.3 0.3-0.5 0.3z"/><path fill-rule="evenodd" class="a" d="m868.5 634.2c-5.8 8.2-12.5 15.7-19.9 22.4-1.8 1.6-3.9 3.3-6.4 3.4h-0.2c-2.7 0-5-1.8-7.1-3.6-8.5-7.5-19.1-16.8-22.4-29.4-1.9-7.1-1.3-14.2-0.7-21 0.5-5.5 1-11.2 0.2-17 0-0.1 0.1-0.3 0.2-0.4 0.1-0.1 0.2-0.1 0.4-0.1 19.2 1.2 38.7 0.6 57.9-1.9 0.1 0 0.3 0 0.4 0.1q0.1 0.2 0.2 0.4c0 4.7 0.6 9.7 1.2 14.5 1.4 11.5 2.9 23.4-3.8 32.6zm2.8-32.5c-0.6-4.7-1.2-9.5-1.2-14.1-18.9 2.4-38 3.1-57 1.9 0.7 5.7 0.2 11.2-0.3 16.6-0.6 7-1.2 13.7 0.6 20.7 3.3 12.2 13.8 21.4 22.1 28.8 2 1.8 4.1 3.4 6.5 3.4h0.2c2.2-0.1 4.1-1.6 5.7-3.1 7.4-6.7 14.1-14.1 19.9-22.2 6.3-9 4.9-20.7 3.5-32z"/><path class="a" d="m924.4 631.8q0 0.5-0.1 1c-5.2-4.8-10-10.4-12.5-17.5-2.1-6.2-2.2-12.5-2.3-18.6 0-5-0.1-10-1.2-15.1q-0.1-0.2 0.1-0.3 0.1-0.2 0.3-0.2 7.6-0.2 15.3-0.9 0.1 0.4 0.1 0.8-7.4 0.7-14.9 0.9c1 5 1.1 10 1.2 14.7 0.1 6.4 0.1 12.4 2.2 18.4 2.4 6.8 6.9 12.2 11.8 16.8z"/><path class="P" d="m927.9 367.8c-1.9 0.2-3.9 0.2-5.9 0.2-0.9-6.7-3.2-12.9-7.2-18.9 1.1 6.2 1.5 12.5 1.1 18.9-2.4 0-4.7-0.1-6.9-0.1h-33.2c-1.7-6.7-3.6-13.1-5.9-20.2-0.5 6.8-1.1 13.5-1.9 20.2h-102.1c-1.5-6.7-3.3-10.6-3.3-17.5-3.2 6.3-4.2 10.4-4.4 17.5h-23.3c-1.7 1-3.3 0-4.6-1.4-7.7-8.6-8.4-21.9-1.6-31.1 3.2-4.4 7.9-7.9 9.9-12.9 3.3-8.7-2.7-18.2-1.5-27.3 1.7-12.5 15.8-19.7 23.2-30.3 8-11.5 7.6-26.5 13.7-39 5.4-11.1 16-19.8 28.5-23.5 12.4-3.6 26.5-2.2 37.8 4 8.6-1.7 17.5 0.6 24.4 5.6 7 5 11.5 12.8 12.1 21 0.5 7.5-2 15.5 1.4 22.3 4 7.7 14 10.6 21 16 9.1 7 13.2 19 10.2 29.6-2.1 7.4-7.1 15.6-2.5 21.9 2.4 3.3 6.8 4.7 10.3 7 6.1 3.9 9.5 10.6 10.8 17.4 1.3 6.8 0.6 13.8-0.1 20.6z"/><path class="a" d="m939 682.2v8.3c0 2.9-2.3 5.3-5.3 5.3l-230.9-4.6 0.1-9c0-2.9 2.4-5.3 5.3-5.3h225.5c3 0 5.3 2.4 5.3 5.3z"/><path class="Q" d="m791.2 676.9v16.1l-88.3-1.9v-8.9c0-2.9 2.4-5.3 5.3-5.3z"/><path class="R" d="m702.8 689.7l236.5 1.6"/><path class="S" d="m792.8 616v61.1"/><path class="S" d="m917.5 616v61.1"/><path class="a" d="m948.9 473.1v124.5c0 10.6-8.6 19.2-19.2 19.2h-162.4c-5 0-9.7-2-13.1-5.2q-0.3-0.3-0.6-0.6c-3.4-3.4-5.5-8.2-5.5-13.4v-124.5c0-5.2 2.1-10 5.5-13.4q0.3-0.3 0.6-0.6c3.4-3.3 8.1-5.2 13.1-5.2h162.4c10.6 0 19.2 8.6 19.2 19.2z"/><path class="b" d="m754.2 459.1v152.5q-0.3-0.3-0.6-0.6v-151.3q0.3-0.3 0.6-0.6z"/><path class="T" d="m733.2 691.8l-45 200.5"/><path class="T" d="m794 693l-29.7 227"/><path class="T" d="m920.5 695.6l24.6 219.8"/><path class="T" d="m879.2 693.9l17.3 167.1"/><path class="T" d="m921.8 714.1h-127.8l-64.2-1.2"/><path class="h" d="m380.5 751.8l-10.6 19.3-21.7-11.4 7.4-19.4z"/><path class="i" d="m392.6 836.4c0 0.2 0 0.4 0 0.6v0.1c0 0 0 0.1 0 0.1-0.4 2.8-3.8 4.7-6.9 5.2-5.8 0.8-11.6-0.8-16.8-3.7-3.8-2.1-6.7-5.6-9.6-8.9q-14.7-17.5-29.5-35c-3.2-3.7-6.9-8.3-5.4-13.5 0.5-1.7 1.3-3.3 2.3-4.8q0.1-0.3 0.3-0.6c1.4-2.2 3-4.2 4.5-6.1 2.3-2.9 4.7-5.7 7.4-8.2 0.1-0.2 0.2-0.3 0.4-0.5q0.7-0.6 1.4-1.3c1-0.8 1.8-1.8 2.8-2.5 1.7-1.3 4-2.7 6.1-1.7q0.1 0 0.2 0c2.8 1.5 4.9 5.6 9.4 7.9 2.2 1 9.5-2.5 14.2 0.6q0.1 0.1 0.2 0.2c1.9 1.6 1.4 5.5 1.7 7.8 0.4 2.6 0.4 6.2 0.5 9.3q0.1 0.3 0.1 0.5c0 1.1 0 2 0.1 2.8 0.2 2.7 0.4 5.1 0.6 7.5q0 0.3 0.1 0.6c0.6 7.1 1.4 13.5 2.5 21.3 0.1 1.2 0.4 2.4 0.7 3.5q0.1 0.3 0.2 0.6c1.7 5.2 5.2 9.4 9.6 12.7 1.6 1.3 2.9 3.3 2.9 5.5z"/><path class="b" d="m380.5 837c-4.8-1.3-8.9-4.1-12.2-6.7q-3.7-2.8-7.2-6-0.2-0.2-0.4-0.4c-9.7-8.9-18.5-20.2-26.4-34.1q-0.1-0.1-0.1-0.2-3.7-6.5-7.2-13.7-0.2 0.3-0.3 0.6c11.6 24.2 25.1 42 41.2 54.2 3.2 2.5 7.6 5.5 12.4 6.9q2.9 0.8 5.7 0.8c2.3 0 4.6-0.4 6.6-1.3v-0.1c0-0.2 0-0.4 0-0.6-3.4 1.7-7.8 1.9-12.1 0.6z"/><path class="b" d="m380.1 818.2c-6.8-0.4-13.7 1.8-19 6.1q-0.1 0.1-0.3 0.2l-0.3-0.4c0-0.1 0.1-0.1 0.2-0.2 5.4-4.4 12.3-6.7 19.2-6.3q0.1 0.3 0.2 0.6z"/><path class="b" d="m334.6 790l-0.3-0.2-0.2-0.1q0.1 0 0.1-0.1c5.4-8.1 7.2-18.6 4.7-28 0.1-0.2 0.2-0.3 0.4-0.5 2.7 9.7 0.9 20.6-4.7 28.9z"/><path class="b" d="m375.9 781.9c-5-0.3-10.1 0.3-15 1.7l-0.1-0.6c4.9-1.4 10-1.9 15-1.6q0.1 0.3 0.1 0.5z"/><path class="b" d="m376.7 792.8c-5-0.1-9.9 0.6-14.6 1.8l-0.1-0.6c4.7-1.2 9.6-1.8 14.6-1.8q0 0.3 0.1 0.6z"/><path class="A" d="m428.9 642.4l3.6 40.5-56.3 79.7-24.1-12.3c-1.7-58 36.4-112.6 36.4-112.6z"/><path class="U" d="m428.9 642.4l3.6 40.5-56.3 79.7-24.1-12.3c-1.7-58 36.4-112.6 36.4-112.6z"/><path class="p" d="m358.8 753c12.2-35.9 26.9-68.8 45.7-101.8"/><path class="c" d="m148.9 597.6c0 0 13.5 47.5 28.8 44.2"/><path class="c" d="m172.3 572.8c1.3 6.5 12.7 49.8 24.4 40.9"/><path class="i" d="m181.3 565.2l-23.7 33.6q-0.8 1.1-1.9 1.9-0.2 0.2-0.5 0.3c-4.2 2.6-10.2 0.7-11.7-4.6l-38.4-132.6c-2-6.7 1.7-13.7 8.3-15.9q0.1 0 0.2-0.1l0.5-0.2 29-9.2c4.9-1.5 10 1.3 11.3 6.2l29.2 107.4c1.3 4.5 0.4 9.4-2.3 13.2z"/><path class="b" d="m155.7 600.7q-0.2 0.2-0.5 0.3-0.6-0.6-1.2-1.3c-2-2.7-3-6-4-9l-33.5-109.4c-1.9-6.2-3.8-12.6-4.4-19.2-0.4-3.9-0.3-9.1 1.3-14.2q0.1 0 0.2-0.1l0.5-0.2c-1.7 5.2-1.8 10.5-1.5 14.4 0.6 6.5 2.6 12.9 4.5 19.1l33.5 109.4c0.9 3 1.9 6.3 3.9 8.8 0.4 0.5 0.8 1 1.2 1.4z"/><path class="c" d="m198.5 649.8l-50.8 201.8"/><path class="c" d="m323.6 652.2l40.7 213.7"/><path class="c" d="m190.9 684h137.8"/><path class="i" d="m362 647.3q-0.1 0.3-0.3 0.5c-2.1 4.3-6.5 7.3-11.8 7.3l-161.2-2.5c-4.8-0.1-8.7-2.7-10.9-6.4q-0.2-0.2-0.3-0.5c-2.1-3.9-2.3-8.7 0.3-12.9l12.7-21c4.4-7.4 12.6-11.8 21.2-11.6l129 3.8c8.8 0.3 16.2 6.5 18 15.1l4.2 20.3c0.5 2.8 0.2 5.5-0.9 7.9z"/><path class="b" d="m362 647.3q-0.1 0.3-0.3 0.5c-33.9-0.7-156.6-1.4-183.9-1.6q-0.2-0.2-0.3-0.5c26.7 0.1 150.8 0.8 184.5 1.6z"/><path class="h" d="m502.5 794.9l2.1 22-24.4 2.6-4.7-20.2z"/><path class="i" d="m569.9 859.8q0 0.3-0.1 0.6c-1 4.3-21.3 4.8-40.6 3.7-19.2-1.2-43.5-2.1-48.5-3.3-3.5-0.8-5.3-3.1-6-8.6q-0.1-0.4-0.1-0.7c-0.2-2.4-0.3-5.2-0.2-8.8 0.1-5 1.1-9.6 2.3-13.4q0-0.3 0.1-0.6c1.8-5.6 3.9-9.2 3.9-9.2l12.9-1.8c0 0 8.2-5.8 12.6-6.4h0.1c2.5-0.2 9.2 4.9 16.2 10.7q0.3 0.2 0.5 0.4c2.5 2.1 5 4.2 7.4 6.2q0.2 0.2 0.4 0.4c2.6 2.2 5 4.2 7 5.7 3 2.4 7.6 5.2 12.4 8.2q0.3 0.2 0.6 0.3c9.3 5.8 19.2 12.1 19.1 16.6z"/><path class="b" d="m569.9 859.8q0 0.3-0.1 0.6c-5.1 0.7-10.2 1-15.4 1-5.5 0-11-0.3-16.6-0.7q-0.3 0-0.5 0c-1.1-0.1-2.1-0.2-3.2-0.3-10.7-0.8-21.5-1.7-32.1-2.8-10-1-19.1-2.2-27.3-5.4q-0.1-0.4-0.1-0.7c8.3 3.3 17.4 4.5 27.4 5.5 10.7 1.1 21.5 2 32.2 2.8q1.6 0.2 3.2 0.3 0.4 0 0.7 0c10.8 0.8 21.4 1.1 31.8-0.3z"/><path class="b" d="m550.8 843.2c-5.6 4.6-10 10.5-12.7 16.9q-0.2 0.3-0.3 0.6c0 0 0 0.1 0 0.1l-0.5-0.1-0.1-0.1q0.1-0.2 0.2-0.5c2.7-6.5 7.2-12.5 12.8-17.2q0.3 0.2 0.6 0.3z"/><path class="b" d="m490.8 855.4l-0.6 0.1c-1.4-9.8-6.2-19-13.5-26.2q0-0.3 0.1-0.6c7.7 7.3 12.6 16.7 14 26.7z"/><path class="b" d="m523 822.4c-4.9 3.9-8.8 8.9-11.3 14.4q-0.1 0.2-0.2 0.2-0.1 0-0.2-0.1c-0.1 0-0.2-0.2-0.1-0.3 2.5-5.6 6.4-10.7 11.3-14.6q0.3 0.2 0.5 0.4z"/><path class="b" d="m530.8 829q-5.5 5-10.1 10.8-0.1 0.1-0.2 0.1-0.1 0-0.2-0.1c-0.1 0-0.1-0.2 0-0.4 3-3.8 6.4-7.4 10.1-10.8q0.2 0.2 0.4 0.4z"/><path class="A" d="m306 476.3l11.5 73.5c0 0 122 29.3 140.8 51.6 18.7 22.3 46.9 195.8 46.9 195.8l-30.5 5.3c-38.1-47.5-58.1-146-58.1-146 0 0-43.4-19.4-56.9-21.7-13.4-2.4-115.5-5.3-125.4-6.5-10-1.1-33.5-21.1-34.1-59.2-0.5-38.1 21.2-89.7 21.2-89.7 22 8 84.6-3.1 84.6-3.1z"/><path class="p" d="m218.4 486.4c0 0 48.3 17.3 93.1 3.9"/><path class="p" d="m237.5 492.3c-2.2 27.4-2.6 54.9-1 82.3 0.4 7.3 1.1 15.1 5.4 21 6.5 9 19 10.9 30.1 12.2q58.3 6.5 116.2 16.2c10.6 1.7 21.8 3.8 30 10.8 9.4 8 13 20.7 16.3 32.6 12.9 45.5 29.2 90 48.8 133"/><path class="p" d="m297.9 543.9c0 0 11.7 2.9 20.8 5.9"/><path class="p" d="m311.6 507c0.7 9.2 1.4 18.2 1.2 27.4 0 1.6-1.7 2.7-3.2 2.1-0.8-0.3-1.4-0.8-1.8-1.4-0.9-1.5-1.1-3.3-1.3-5q-2.2-18.7-4.4-37.5"/><path class="p" d="m273.4 495.8c-0.5 10.7-4.4 21.2-11.1 29.7-6.6 8.4-15.8 14.7-26.1 17.8"/><path class="h" d="m306.4 281.4l-1.4 10.1-2 14.4-2.1 14.8c0 0-41.9-5.3-49.6-24.2l21.5-37z"/><path class="V" d="m305 291.5l-2 14.4c-1.2-0.4-2.4-1.1-3.4-1.8-3.5-2.4-6.7-5.2-9.7-8.3-5.4-5.6-9.9-12.1-13.2-19.2-0.5-1.1-2.2-3.6-0.6-4.4 1.3-0.6 4.6 1.8 5.8 2.3 4.1 2.1 8 4.2 11.8 6.7 4.2 2.9 8.1 6.3 11.3 10.3z"/><path class="h" d="m345.8 255c0 0.6-0.2 1.1-0.5 1.6-1.8 2.7-5.9 5.1-6.8 6q0 0.1-0.1 0.1c-0.1 0.2-0.2 0.7-0.4 1.3-0.3 1.4-0.5 3.4-1.3 3.4-4-0.1-8.6-0.5-13-0.5h-0.1c0 0.1 0.3 0.5 0.4 0.8 0.1 0.2 0.2 0.4 0.2 0.4 1.5 2.3 4.2 4.2 6.7 5.5 2.2 1.1 4.6 1.3 4.5 4.2q0 0.3 0 0.6c-0.3 3.5-2.2 7.8-3.7 10.9-1 2-2 4.1-4.4 4.9-2.7 1-5.7 0.4-8.5 0.3q-7.1-0.4-13.9-2.2c-6.2-1.6-12.1-4-17.7-6.9-3.2-1.7-6.2-3.6-9-5.8q-3.2-2.5-5.9-5.5c-0.1-0.1-0.1-0.1-0.2-0.2-1.6-1.8-3-3.8-4.4-5.8-7.7-12-9.8-26.7-8.2-41.1 1.3-11.6 6-22.7 15.2-30.2 7.1-5.8 16.5-9.2 25.8-8.9 5.1 0.1 9.9 1.1 14.3 3q0.6 0.2 1.1 0.5c5.8 2.7 10.8 6.9 14.4 12.7 5 8.2 4.3 15.7 3.7 23q-0.1 1.8-0.2 3.5c-0.2 2.5-0.4 5.2 0.5 7.5 0.7 1.8 3.6 4.2 6.5 7.8 2.1 2.5 5.1 6.3 5 9.1z"/><path class="W" d="m345.8 255c0 0.6-0.2 1.1-0.5 1.6-1.8 2.7-5.9 5.1-6.8 6q0 0.1-0.1 0.1c-0.5-0.2-0.9-0.6-1-1.1-0.3-1.1 0.6-2 1.4-2.6q2.5-2 5.5-3.4c0.3-0.2 0.9-0.4 1.5-0.6z"/><path class="D" d="m346.5 227.1h-14l-2.4-15.5-0.6 15.5-11.8-0.1-0.9-21.7-3.2 21.7h-10.7l14.9-45.1c0 0 13.2 0.8 21.8 15.2 8.6 14.5 6.9 30 6.9 30z"/><path class="D" d="m302.9 227l-20.9 32.4c0 0-10.9 20.9-20.8 23.6-3.8 1-6-0.4-9.5-1.9-23.6-10-28.3-38.3-23.4-60.8 1-4.9 2.6-9.7 4.6-14.2 5.5-12.2 13.7-22.3 25.4-28.7 11.2-6.2 24.7-9 37.3-5.9 5.9 1.5 11.6 3.9 16.9 6.9 0.4 0.3 6.7 3.8 6.6 4.3-0.1 0-16.2 44.3-16.2 44.3z"/><path class="h" d="m286.8 263.5c-7-0.6-14.1-3.3-18.4-8.6-4.2-5.4-4.9-13.5-0.3-18.6 3.9-4.3 10.8-5.4 16.4-3.3 5.5 2.2 9.6 7.2 11.3 12.7-1.9 6.5-4.9 12.4-9 17.8z"/><path class="X" d="m277.3 254.1c-1.1-5.1 0.1-10.7 3.2-15"/><path class="X" d="m277.5 245.4c3.6 1.5 5.6 2.2 8.5 4.9"/><path class="Y" d="m338 264c-0.3 1.4-0.5 3.4-1.3 3.4-4-0.1-8.7-0.5-13-0.5-0.3-0.7 0.8-1.1 1.7-1.3 3.3-0.6 6.8-1.1 10.1-1.6 0.9-0.1 1.8-0.3 2.5 0z"/><path class="Z" d="m335.4 277.8q0 0.3 0 0.6-0.5 0.3-1.1 0.2c-0.6 0-1.3-0.2-1.8-0.4-1.4-0.6-2.7-1.4-3.9-2.4-2-1.7-3.6-4-4.5-6.5-0.1-0.4-0.6-1.3-0.1-1.6 0.1 0.2 0.2 0.4 0.2 0.4 1.5 2.3 4.2 4.2 6.7 5.5 2.2 1.1 4.6 1.3 4.5 4.2z"/><path class="D" d="m311 232.3c0.5-2.1 1.7-3.7 3.2-5.1 1.5-1.4 3.4-2.4 5.6-2.8 2.2-0.5 4.6-0.2 6.5 0.8 2 0.9 3.4 2.5 4.3 4.3 0.2 0.3 0 0.7-0.3 0.8q-0.1 0.1-0.3 0.1h-0.1c-2-0.2-3.5-0.6-5-0.6-1.4-0.1-2.7 0.1-4 0.4-2.5 0.4-5.3 1.7-8.8 3v0.1c-0.5 0.1-0.9-0.1-1.1-0.5q-0.1-0.3 0-0.5z"/><path class="a" d="m335.4 255.5c-0.5 0.2-0.8 0.9-1 1.5-0.2 0.6-0.3 1.3 0 1.7 0.2 0.4 0.8 0.3 1.5 0.1l2-0.5c0.3 0 0.5 0.2 0.6 0.4q0 0.2-0.1 0.4l-1 1.7c-0.1 0.2-0.4 0.2-0.5 0.1-0.2-0.1-0.3-0.3-0.2-0.5l0.8-1.8 0.6 0.8-2.1 0.2c-0.5 0.1-1.7 0.4-2.2-0.6-0.4-0.8-0.1-1.5 0.1-2.2 0.3-0.7 0.6-1.4 1.4-1.7 0.1 0 0.2 0.1 0.3 0.2 0 0-0.1 0.1-0.1 0.2z"/><path class="a" d="m324.8 237.5c1.9-0.2 3.5 1.1 3.7 3 0.2 1.8-1.1 3.4-2.9 3.6-1.8 0.2-3.5-1.1-3.7-2.9-0.2-1.8 1.1-3.5 2.9-3.7z"/><path class="a0" d="m322.7 260.3c0 3-0.7 5.9-1.9 8.6q-0.1 0.3-0.3 0.6c-3.5 7.1-10.7 12-19.1 11.9-11.8 0-21.2-9.6-21.2-21.3 0-11.7 9.6-21.2 21.3-21.1 11.7 0 21.2 9.5 21.2 21.3z"/><path class="D" d="m295.8 251.2c-0.8-0.4-1.4-1.1-1.8-1.9-1.3-2.1-1.3-4.6-1.8-7-0.5-2.6-1.2-5.2-2.1-7.7-1.2-3.5-0.6-8.1 1.5-11.2 2.7-4 10.7-6.7 13-0.8 1.2 3.3 0.2 7.9-0.2 11.3-0.7 5-1.7 11.1-4.4 15.5-0.9 1.4-2.3 2.6-4 1.9q-0.1-0.1-0.2-0.1z"/><path class="D" d="m202.5 209.9c-6.1-8.5-6.4-20.3-2.2-29.8 4.2-9.6 12.4-17 21.7-21.8 4.4-2.3 9.2-4 14.2-4.3 4.9-0.3 10.1 1 13.9 4.3 4.8 4.2 6.6 11.1 6.7 17.6 0.3 19.3-15.2 46-37 43.8-6.8-0.7-13.3-4.2-17.3-9.8z"/><path class="h" d="m331.8 384l22.7 24.2 47.5-57.6 16.2 11.3c0 0-38.7 75.7-48.9 83.9-10.1 8.2-23 1.2-37.5-7.4-14.5-8.6-23.9-20.8-23.9-20.8z"/><path class="h" d="m399.7 359.2c0 0 1.4-6.2 0.9-7.3-0.6-1.1-6.7-21-7.3-23.7-0.8-3.7 2.8-29.6 5.8-29.6 3.1 0 4.2 5.8 4.4 10.4 0.2 4.5 1.6 15.9 1.6 15.9 0 0 7.5-16.1 10.9-23.4 3.4-7.2 7.6-18.8 10.5-18.3 2.9 0.6 1.8 5.1 0.7 9.3-1.1 4.1-8.1 24.4-8.1 24.4 0 0 14.8-30 19.7-29.5 4.9 0.6 5.6 3.1 4.9 6.2-0.7 3-10 27.2-10 27.2 0 0 12.1-17.6 14.1-16.8 3.1 1.3-2.6 10.2-5.7 15.1-3.1 4.9-4.5 8.7-4.5 8.7 0 0-4.4 12.7-9.6 21.4-4.9 8-13.1 16.8-13.1 16.8z"/><path class="w" d="m441.3 288.1l-14 31"/><path class="w" d="m418.9 317.1c6.9 1.2 8.9 2.3 15.5 4.6"/><path class="w" d="m405.3 324.6c7.3 3.8 13.5 11.2 15.3 18.9"/><path class="p" d="m354.5 408.9c0 6.5 1 12.9 3.1 19"/><path class="i" d="m304.2 327c1.8 2 3.5 4.4 5.2 6.4 2.7 3.2 4.7 7.2 6.8 10.8 5.3 9.1 9.6 18.7 14.4 28q2.2 4.2 4.3 8.3l-19.1 34c0 0-11.6-87.5-11.6-87.5z"/><path class="i" d="m256.4 287.7c0 0 6.3 9.6 25.1 13.3 18.7 3.7 21.8 2.6 21.8 2.6l0.6-3.3c0 0 5.1-0.3 6.9 6.9 1.7 7.1-6.8 19.6-6.8 19.6 0 0-26.6-0.4-44.4-13-17.7-12.7-15.2-11.3-15.2-11.3 0 0-1.5-16.9 7.5-19.7 3.3-1.1 6.3 1.6 6.3 1.6z"/><path class="i" d="m304 326.8c0 0 8.6 17.3 16.5 49 7.8 31.7-5.1 59.4-7.5 63.3-2.3 3.9-7 37.2-7 37.2-37.9 20.3-84.6 4.3-84.6 4.3 0 0-1.8-22.6-3-35.8-1-11.2-4.7-43.2 0.4-78.8 5.1-35.5 25.6-63.5 25.6-63.5z"/><path class="h" d="m414.3 567.3l-9.4 13c0 0-106.7-59.3-114.9-69.8-8.2-10.6-40.5-91.5-40.5-91.5l49.8-24.6 22.3 88.5 0.5 0.5z"/><path class="a" d="m322.1 483.4c-3.8 1.8-7.2 4.3-10.3 7.3q0 0-0.1 0-0.2 0-0.2-0.1c-0.2 0-0.2-0.2 0-0.3 3-3 6.4-5.5 10.1-7.4z"/><path class="h" d="m412.9 566c0 0 30.1 8.4 39.2 15.4 9.1 7 19.9 20.6 18.7 22.1-1.3 1.5-13.2 6.1-15.3 4.5-2.2-1.5-12.6-8.7-12.6-8.7 0 0 13.4 8.6 11.2 10.4-2.1 1.8-15.3-7.7-17.4-8.9-1.2-0.7-12.2-4.8-20.7-10.3-6.5-4.2-11.1-10-11.1-10z"/><path class="p" d="m450.5 585.8c0 0 13.6 10.2 18 18.9"/><path class="p" d="m444.6 589.9c0 0 14.5 11 17.9 17"/><path class="p" d="m437.1 595.5c0 0 14.4 8.9 18.4 12.5"/><path class="p" d="m244.8 302.1c4.8 4.3 10.6 7.4 16.8 8.9"/><path class="p" d="m304.2 326.5c-5.5 0-11.1-1.3-16-3.9"/><path class="p" d="m312.2 349.8c0 0 10.3 29 10.6 51.3"/><path class="i" d="m244.2 432.1c0 0-28.1-89.4 7.1-110.7 35.1-21.4 53.3 84.8 53.3 84.8z"/><path class="p" d="m266.2 319.6c0 0 15.6 3.8 25.2 26.7 9.7 22.9 17.5 57.1 17.5 57.1l-6.4 3.5"/><path class="p" d="m262.7 424.3l-16.7 7.3c0 0 0 0-8.8-27.5-8.8-27.6-4.1-52.8-4.1-52.8"/><path class="p" d="m227.5 371.5c2.9 7.6 3.8 8.9 5.9 16.1"/><path class="b" d="m492.4 150.4v54.7c0 8.2-6.7 14.9-14.9 14.9h-62.4l-54.6 42.1 20.7-42.1h-4.3c-8.2 0-14.9-6.7-14.9-14.9v-54.7c0-8.2 6.7-14.9 14.9-14.9h100.6c8.2 0 14.9 6.7 14.9 14.9z"/><path class="i" d="m407.2 175.5c0 2.7-2.2 4.9-4.9 4.9-2.7 0-4.9-2.2-4.9-4.9 0-2.7 2.2-4.8 4.9-4.8 2.7 0 4.9 2.1 4.9 4.8z"/><path class="i" d="m433.2 175.5c0 2.7-2.2 4.9-4.9 4.9-2.7 0-4.9-2.2-4.9-4.9 0-2.7 2.2-4.8 4.9-4.8 2.7 0 4.9 2.1 4.9 4.8z"/><path class="i" d="m459.2 175.5c0 2.7-2.1 4.9-4.8 4.9-2.7 0-4.9-2.2-4.9-4.9 0-2.7 2.2-4.8 4.9-4.8 2.7 0 4.8 2.1 4.8 4.8z"/><path class="a1" d="m221.8 941.5c0 7.6-37 13.8-82.7 13.8-45.7 0-82.8-6.2-82.8-13.8 0-7.6 37.1-13.8 82.8-13.8 45.7 0 82.7 6.2 82.7 13.8z"/><path class="s" d="m58.3 701.5c-3.3-3.9-6.6-8.3-7.1-13.4-0.4-5.1 3.4-10.9 8.5-10.6 5.1 0.2 10.1 5.7 14.3 2.9 2.1-1.4 2.7-4.4 1.9-6.9-0.8-2.4-2.5-4.4-4.2-6.4-14.7-17.2-26.2-37.2-33.6-58.6-1.1-3.4-2.2-6.8-2.1-10.4 0.2-3.5 1.7-7.2 4.7-9 3.2-2 7.5-1.6 10.8 0.2 3.4 1.7 6 4.6 8.6 7.3q-3-13.5-5.9-27c-1.6-6.9-2.5-15.5 3.1-19.8 3.8-2.8 9.2-2.4 13.3-0.1 4.1 2.3 7.1 6.1 9.8 9.9 6.7 9.2 12.4 19.1 16.9 29.5 2.4-6.8 6.2-14.7 13.3-15.4 4.6-0.5 9 2.6 11.4 6.5 2.5 3.9 3.4 8.5 4.1 13.1 3.7 25.1 2.9 50.9-2.5 75.7 6.3-0.4 10-7.9 16.1-9.2 5.4-1.2 10.8 3.3 12.5 8.5 1.8 5.3 0.8 11-0.4 16.4-4.5 19.1-12.2 37.5-22.7 54.1-6.8 10.7-9.9 12-20.7 5.2-8.8-5.5-17.1-11.4-25.1-17.9-9-7.5-17.4-15.6-25-24.6z"/><path class="a2" d="m66.4 561.6c0 0 42.6 114.4 54.3 189.1 11.8 74.8 11.8 74.8 11.8 74.8"/><path class="s" d="m193.6 752.6c-7.2 4.3-14.8 8-22.5 11.2-9.7 4.1-12 2.7-16.1-6.9-6.4-14.7-10.2-30.6-11.3-46.6-0.3-4.5-0.3-9.3 1.8-13.3 2.1-4 7-6.9 11.2-5.2 4.8 1.8 6.8 8.4 11.8 9.4-1.1-20.7 1.5-41.6 7.8-61.4 1.2-3.6 2.5-7.2 5-10.1 2.5-2.8 6.4-4.7 10-3.7 5.7 1.5 7.7 8.4 8.8 14.1 5-7.8 10.9-15 17.5-21.6 2.7-2.8 5.6-5.4 9.2-6.7 3.6-1.3 8-0.9 10.7 1.8 4 4.2 2.1 11 0 16.4q-4.2 10.5-8.3 21.1c2.4-2 4.9-3.9 7.9-4.9 2.9-0.9 6.4-0.8 8.8 1.3 2.1 1.9 2.9 5 2.5 7.9-0.3 2.9-1.6 5.5-3 8.1-8.8 16.3-20.6 31-34.7 43-1.6 1.4-3.3 2.8-4.3 4.6-0.9 1.9-0.9 4.5 0.7 5.9 3.1 2.7 7.8-1.1 11.9-0.6 4.2 0.5 6.5 5.6 5.5 9.7-1 4.1-4.3 7.2-7.4 9.9-7.3 6.3-15.2 11.8-23.5 16.6z"/><path class="a3" d="m141 826.6c0 0 0 0 19.2-58.9 19.2-58.9 68.5-145.7 68.5-145.7"/><path class="e" d="m213.8 789.3l-3.7 17.4-0.4 2.1v0.2l-0.5 2.2-12 57.5-0.5 2.1-0.5 2.5-0.5 2.6-9.9 47.2-0.4 2.1-2.3 10.5c0 0-4.4 5.1-38.1 5.1-33.7 0-41.5-5.1-41.5-5.1l-4-18.3-0.4-2.1-0.4-1.8-0.4-2-12.1-56.3-0.5-2.3-0.5-2.4-0.5-2-8.5-39.7-0.4-2-3.6-16.8z"/><path class="D" d="m210.1 806.7l-0.4 2.1c-12.8 1.6-31.6 2.2-51.4 2.2-32.2 0-66.9-1.5-82.1-2.2l-0.4-2c24 1.1 101.2 4.3 134.3-0.1z"/><path class="D" d="m209.7 809l-0.5 2.2c-22.4 7.2-92.9 29.8-124 39.3l-0.5-2c31.8-9.6 103.9-32.8 125-39.5z"/><path class="D" d="m185.8 923.1l-0.4 2.1c-4.9 0.5-10 0.7-15.4 0.7-24.7 0-53.6-5-70.5-8.5l-0.4-2.1c20.4 4.2 59.6 11.1 86.7 7.8z"/><path class="D" d="m98.3 911.5c33.7-4.3 77.2-26.6 97.9-38.2l-0.5 2.6c-21.3 11.8-63.7 33.2-97 37.6z"/><path class="D" d="m197.2 868.7l-0.5 2.1c-35.7 4.5-89.7-9.6-110.5-15.6l-0.5-2.3c20 5.8 75.8 20.5 111.5 15.8z"/><path class="A" d="m1344 754.9c-1.7-20.3 11.4-39.7 28.5-50.6 17.2-10.9 37.9-14.8 58.1-17 20.2-2.3 40.8-3.1 60.3-8.9-7.8 18.1-21.7 30-39.9 37.5-18.1 7.4-37.7 10.6-56.7 15.4-19 4.7-35.7 10.5-50.3 23.6z"/><path class="A" d="m1317.2 749.2c-20.4-54-13.1-117.7 19.1-165.7 17.5 55.4 9.9 115.4-19.1 165.7z"/><path class="j" d="m1473.8 686.3c-13.6 5.7-29.5 5.7-44 8-15 2.3-30 5.5-43.9 11.9-20.5 9.4-34.2 27.8-41.9 48.7 0 0-18.6 66.6-18.6 103.7 0 0-9.9-36.2-8.5-107.6 1.3-71.5 17.6-157.4 17.6-157.4"/><path class="A" d="m1294.4 751c0.3 1.2 0 2.5 0 3.7-34.2-8.5-62.8-36.7-71.8-70.7-2-7.5-5.8-13-9.8-19.7-3.9-6.6-9.7-10.4-16.6-12.1 11.9-7.1 29.4-6.2 40.4 2.2 11 8.4 19.5 21.5 26.4 33.5 12.3 21.3 26.5 44.7 31.4 63.1z"/><path class="j" d="m1206 650.5c0 0 24.9-11.7 53.9 39.9 28.9 51.5 35.2 60.6 39.8 74.6 4.5 14 25.7 93.6 25.7 93.6"/><path class="a1" d="m1396.8 949.1c0 7.7-37.1 13.8-82.8 13.8-45.6 0-82.7-6.1-82.7-13.8 0-7.6 37.1-13.7 82.7-13.7 45.7 0 82.8 6.1 82.8 13.7z"/><path class="s" d="m1388.8 797l-1.2 5.7-0.4 1.9-2.1 9.7-0.4 2.1-0.1 0.2-0.4 2.3-7.8 37-0.5 2.7-3.8 17.7-0.3 1.5-0.1 0.6-0.3 1.6-0.2 1-0.6 2.6-5.2 24.8-0.4 2.2-4.2 20.1-0.5 2.1-1.1 5.6-0.6 2.6-0.5 2.4c0 0-1.6 1.8-10.3 3.3q-2.5 0.4-5.9 0.8c-5.4 0.6-12.5 1-21.9 1-5.7 0-10.6-0.2-14.9-0.4q-1-0.1-2-0.2c-19.6-1.2-24.6-4.5-24.6-4.5l-4-18.4-0.4-2.1-0.4-1.8-0.4-1.9-0.2-0.6-0.4-2.1-5.6-26-0.5-2.1-2.1-10-0.4-2-3-13.6-0.4-2.3-0.6-2.4-0.4-1.9-2-9.6-0.5-2.1-6-28.1-0.5-2-0.9-4.2-0.4-1.9-2.3-10.7 36.3-0.1 6.9-0.1 67.9-0.3h2.3z"/><path class="D" d="m1290.3 797.4c-13.5 4.1-27 8.4-40.5 12.8l-0.4-1.9q16.9-5.6 34-10.8z"/><path class="D" d="m1360.5 797.1c-1.9 3.5-5.4 6.5-8.6 8.6-14.5 9.7-31.4 15.3-47.8 20.8-15.9 5.4-32.4 10.9-46.4 20.1l-0.5-2.1c14.1-9.1 30.4-14.6 46.3-19.9 16.2-5.4 33-11 47.3-20.6 2.3-1.5 5.4-3.9 7.4-6.9z"/><path class="D" d="m1323.5 872.7c17.9-3 37.4-7 52.9-16.8l-0.5 2.7c-15.5 9.3-34.6 13.2-52.1 16.1l-1.6 0.3c-19.2 3.1-38.9 6.4-55.1 15.5l-0.5-2.1c16.4-9 36.1-12.2 55.3-15.4z"/><path class="D" d="m1387.6 802.7l-0.4 1.9c-6.3-1.5-13.2 0.8-18.6 3.1-22.3 9.3-41.6 24.7-60.3 39.5-12.6 10-25.5 20.3-39.4 28.8-1.1 0.7-2.6 1.6-4.4 2.4l-0.4-2c1.5-0.7 2.8-1.5 3.8-2.1 13.7-8.4 26.6-18.7 39.2-28.6 18.8-15 38.2-30.4 60.7-39.9 5.7-2.4 13-4.8 19.8-3.1z"/><path class="D" d="m1359.2 938.4l-0.6 2.6q-5.3 2.9-10.8 5.7-2.5 0.4-5.9 0.8 8.7-4.4 17.3-9.1z"/><path class="D" d="m1324.6 923.2c13.2-5.7 26.9-10.7 40.8-14.8l-0.4 2.2c-13.5 4-26.8 8.9-39.6 14.5-6.8 2.9-13.7 6.2-17.7 12.2-2.1 3.1-3 7.1-2.6 10.8q-1-0.1-2-0.2c-0.4-4 0.7-8.3 2.9-11.7 4.4-6.4 11.6-9.9 18.6-13z"/><path class="D" d="m1371.8 877.8l-0.1 0.6-0.3 1.6c-34.5 8.1-67.5 21-98.3 38.6l-0.4-2.1c31.1-17.6 64.4-30.6 99.1-38.7z"/></svg>